<svg width="176" height="104" viewBox="0 0 176 104" fill="none" xmlns="http://www.w3.org/2000/svg"><path d="M13.674 43.72c2.96.16 6-.16 8.96-.16 1.76.08 3.44.16 5.12.4.96.16 1.92.48 2.72 1.04.24.16.48.32.64.48 1.68 2.16 2.96 4.4 2.96 7.28-.08 1.92-.48 3.76-1.44 5.44-1.28 2.32-2.4 4.64-4 6.8s-3.44 4.08-5.6 5.68c-1.76 1.2-3.44 2.48-5.44 3.36-2.8 1.28-5.52 1.12-8.16-.24-.96-.56-1.84-1.12-2.72-1.76-1.36-.96-2.24-2.32-3.12-3.76-.08-.24-.24-.4-.08-.64.24-.24.48-.08.64-.08.4.16.72.4.96.72.24.32.48.64.8.96.96.8 2.16.64 3.28.56.72-.16 1.44-.4 2.16-.72 4.24-2.16 7.84-5.04 10.88-8.64 2.16-2.56 4.08-5.36 5.6-8.32.56-1.04.88-2.16 1.04-3.36.08-.32-.08-.48-.4-.56-1.36 0-2.64-.16-4-.24-1.68-.08-3.28 0-4.96 0-2.64-.08-5.28-.08-7.92-.48-3.44-.56-6.16-2.24-8.24-5.04-2-2.64-2.8-5.6-2.48-8.8.24-2.4 1.12-4.64 2.16-6.88 1.76-3.44 4-6.64 6.56-9.6 2.48-2.88 5.2-5.44 8.56-7.28 1.68-.88 3.36-1.6 5.2-1.84 2.4-.4 4.56.16 6.32 1.92 1.28 1.44 2.48 3.04 3.28 4.8.4.88.56 1.84.64 2.8.16 2.32-.16 4.56-.56 6.72-.56 2.96-1.2 5.84-2.4 8.64-.72 1.76-1.68 3.44-2.88 4.88-.4.48-.88.88-1.44 1.12-1.2.48-2.48-.08-3.04-1.2-.4-.64-.24-1.28.4-1.76.16-.16.4-.24.56-.4.72-.48 1.36-1.12 1.76-2 1.68-4.08 2.72-8.4 3.2-12.8.16-1.68.16-3.28.08-4.96 0-.88-.32-1.76-.56-2.64-.08-.4-.32-.48-.72-.48-.56 0-1.2.16-1.76.32-2.16.72-4.08 1.76-5.92 3.12-3.92 3.04-7.12 6.8-10 10.88-2 2.88-3.6 5.92-4.56 9.36-.48 1.76-.4 3.44.08 5.12.08.4.32.72.64.96 1.12.88 2.48 1.2 3.84 1.28 1.12.08 2.24 0 3.36 0zM43.2 30.28c-3.6.64-7.04.88-10.56.96-1.6 0-3.28-.32-4.88-.8-1.12-.32-2.08-1.04-2.8-2.08-1.12-1.52-.88-3.76.48-4.96.24-.32.64-.56 1.04-.64.56-.08 1.04.08 1.28.48.32.4.24.88-.08 1.36-.16.32-.56.48-.88.8.56.64 1.12 1.12 1.84 1.52 2.32 1.12 4.8 1.76 7.44 1.84 2.24 0 4.48-.08 6.72-.4.8-.16.8-.16.96-.88.4-2.24.88-4.48 1.36-6.72.56-2.72 1.36-5.28 2.08-7.92.32-1.12 2-1.6 2.8-.8.8.8 1.6 1.52 2.16 2.56.24.56.32 1.12 0 1.76-.72 1.28-.96 2.72-1.28 4.08-.48 2-.8 4-1.12 6.08a86.92 86.92 0 005.44-1.76c2.8-.96 5.68-1.84 8.64-2.4 2.16-.32 4.24-.56 6.4-.08 1.2.24 2.4.8 3.44 1.52 1.6 1.2 2.24 2.88 1.92 4.88-.08.64-.48 1.28-.96 1.68-.48.4-.96.4-1.36.16-.4-.4-.4-.8 0-1.36v-.08c.72-.96.72-.96-.32-1.68-1.36-.88-2.88-1.12-4.48-1.2-4.72-.32-9.44.08-14.08 1.36-1.44.4-2.8.8-4.24 1.04-.64.16-.88.4-.96 1.04-.48 3.28-1.12 6.64-1.44 9.92-.24 2.96-.64 5.92-.72 8.88-.08 2.88-.08 5.76-.08 8.64-.08 2.8.24 5.52.96 8.16 0 .24.08.48.16.64.4 1.36 1.44 1.68 2.72 1.04 1.12-.64 1.84-1.6 2.48-2.56C55.6 60.76 57.52 57 58.96 53c.16-.48.4-.96.56-1.44.16-.24.4-.56.8-.4.32.08.64.4.56.8 0 .48-.08.88-.24 1.28-1.52 4.4-3.2 8.64-5.6 12.64-.56.96-1.12 2-2.08 2.72-.88.64-1.84.88-2.8.8-2.8-.24-4.64-1.92-6-4.16-.96-1.68-1.44-3.52-1.76-5.44-.56-3.36-.64-6.72-.56-10.16v-2.8c.16-4.72.4-9.44 1.12-14.08.08-.8.16-1.6.24-2.48zm16.53 25.76c.16-1.84.32-4.4 1.2-6.8.96-2.64 2.64-4.72 5.28-5.84.72-.32 1.52-.48 2.24-.56 1.6-.16 2.88.24 3.84 1.52.72.88 1.44 1.68 1.68 2.8.08.48.16.96.08 1.36-.32 2.08-1.2 3.92-2.72 5.44-1.52 1.6-3.28 2.88-5.44 3.52-.32.16-.48.32-.48.64-.08 2 0 4 .96 5.84.24.48.56.8 1.04 1.04 1.6.56 3.12.32 4.64-.4 2.88-1.6 4.88-3.92 6.48-6.8.8-1.44 1.6-2.96 2.08-4.56 0-.08 0-.16.08-.24.24-.32.32-.8.88-.72.4.08.88.64.88 1.2-.08.32-.08.72-.24 1.04-1.28 3.36-2.88 6.48-5.36 9.2-1.12 1.28-2.4 2.32-3.84 3.28-2.32 1.44-5.52 1.44-7.92-.4a14.537 14.537 0 01-4.32-5.04c-.8-1.52-1.2-3.12-1.04-5.52zm6.16-.64c.32-.24.72-.48 1.12-.72 2.72-1.68 3.84-4.32 3.92-7.44.08-.64-.16-.8-.72-.4-.4.32-.72.64-1.04.96-1.2.96-1.84 2.32-2.4 3.6-.48 1.04-.64 2.16-.96 3.28 0 .24-.08.4.08.72zm16.57-7.92c.08-3.52.16-7.04.4-10.56.48-7.12 1.92-13.92 4.24-20.64.8-2 1.92-3.76 3.6-5.2 1.28-1.28 2.8-1.76 4.64-1.2.48.16.96.4 1.28.72 2.08 1.92 3.28 4.16 3.519 6.96.24 2.24.08 4.56-.24 6.8-.4 3.12-1.12 6.16-2.08 9.2-1.68 4.96-3.76 9.76-7.12 13.84-.4.48-.8.96-1.28 1.36-.24.32-.4.56-.4.96 0 3.2 0 6.4.08 9.6.08 1.84.16 3.76.88 5.6.32.96.8 1.2 1.76.8.96-.32 1.76-.88 2.4-1.68 1.36-1.6 2.48-3.44 3.44-5.28.96-2 2.08-3.92 2.64-6.08.16-.64.48-.8.96-.64.8.24 1.28.96 1.04 1.52-.32.72-.72 1.44-1.04 2.16-1.44 2.96-2.8 6-4.56 8.8-.72 1.2-1.6 2.32-2.8 3.12-.72.56-1.52.72-2.32.56-1.28-.16-2.48-.64-3.52-1.52-2.32-1.92-3.68-4.4-4.32-7.2-.56-2.56-.88-5.2-1.12-7.84-.08-1.44-.08-2.8-.08-4.16zm13.84-33.6c-.96.88-1.68 1.76-2.24 2.88-.96 1.76-1.44 3.76-1.92 5.68-.56 2.56-1.12 5.12-1.52 7.76-.4 2.24-.72 4.56-.96 6.8-.24 2.48-.4 5.04-.56 7.52 0 .48-.08.96.08 1.52.32-.16.4-.4.56-.64 2-2.96 3.52-6.16 4.72-9.52 1.92-5.2 3.12-10.48 2.96-16.08 0-1.44-.08-2.8-.4-4.24-.16-.56-.24-1.12-.72-1.68zm18.32 42.48c-.8 1.84-1.6 3.76-2.48 5.68-.72 1.52-1.44 3.04-2.24 4.56-.96 1.76-1.92 2.4-4.08 1.52-2.64-.96-4-2.64-4.24-5.44-.16-2.4.24-4.72.64-7.04.48-2.32 1.2-4.56 2.16-6.64.8-1.76 1.92-3.28 3.52-4.4.88-.64 1.84-1.2 3.04-1.12.16.08.4 0 .56.08 1.68.72 3.28 1.52 4.16 3.28.08.16.16.32.32.48.32.72.32.72 1.2.56.32-.08.64-.08.88.08.8.56 1.68.88 2.4 1.52.56.48.88 1.12.64 2-.72 2.24-.88 4.56-1.12 6.88-.08 1.04-.08 2.16.08 3.2 0 .32.08.64.16.96.24.72.56.96 1.36.8.8-.16 1.44-.64 2-1.2 1.52-1.52 2.64-3.28 3.52-5.2.48-1.2.8-2.4 1.28-3.6.08-.16.16-.4.24-.56.16-.32.4-.64.8-.48.4.16.64.48.64.88-.16.8-.32 1.52-.56 2.24-.56 1.52-1.2 2.96-1.92 4.4-.64 1.44-1.6 2.64-2.64 3.76-1.44 1.52-3.12 1.84-4.96 1.04-2.24-.96-3.92-2.56-4.64-5.04-.24-1.04-.48-2.16-.72-3.2zm-1.44-9.92c-.4.24-.64.56-.8.88-.56 1.04-1.2 2.08-1.6 3.2-1.68 4.24-2.8 8.56-3.52 13.04 0 .32-.08.56.16.88.88-.96 1.52-2 2.16-3.04 1.6-2.88 3.04-5.84 4.88-8.56.8-1.12.96-2.32.32-3.6-.4-.96-.8-2-1.6-2.8zm27.811 20.24c1.36-.96 2.4-2 3.2-3.28 1.84-2.88 3.2-6.08 4.48-9.2.24-.8.56-1.52.88-2.24.16-.4.32-.8.88-.64.4.08.72.8.64 1.2-.16.64-.4 1.2-.56 1.76-1.36 3.44-2.64 6.8-4.16 10.16-.64 1.44-1.36 2.88-2.32 4.08-1.76 2.24-2.56 2.4-5.04.96-1.84-1.12-3.36-2.72-3.68-5.04-.24-1.28 0-2.48.16-3.68.24-1.6.56-3.12.48-4.72v-.8c-.08-.64-.32-1.04-.96-1.36-2.24-.96-3.92-2.64-5.44-4.4-.96-1.12-1.44-2.48-1.68-3.92-.48-2.56-.08-5.12.96-7.52.72-1.76 2.08-2.88 3.92-3.2 1.2-.24 2.24.08 3.04.96l.48.48c1.52 1.28 1.84 2.88 1.44 4.8-.72 2.72-2 5.12-3.68 7.28-.24.24-.64.4-.48.8.08.4.32.72.64 1.04.64.4 1.36.8 2 1.12.88.4 1.68.96 2.32 1.6.48.32.88.72.96 1.28 0 .24.16.4.32.64.8 1.28 1.28 2.64 1.44 4.16.24 1.68.16 3.36-.08 5.12-.08.8-.16 1.6-.16 2.56zm-6-28.96c-.8.64-1.28 1.2-1.52 1.92s-.4 1.36-.48 2c-.32 1.6-.48 3.28 0 5.04 1.76-2.72 2.48-5.6 2-8.96zm21.571 26.88c.48-.08.64-.48.88-.72.88-1.28 1.6-2.64 2.24-4.08 1.52-3.6 2.96-7.2 4.32-10.8.48-1.44.88-2.96 1.68-4.32.08-.16.08-.32.16-.48 0-.48.24-.88.72-.96.56-.08 1.04-.08 1.52.4.88.8 1.2 1.76 1.28 2.96.16 2.24.32 4.48.48 6.8.16 2.32.4 4.56.48 6.88.16 2.56.24 5.04.16 7.52-.08.88-.24 1.84-.32 2.8-.16.72-.16.72.56 1.04 1.6.72 3.12 1.68 4.24 3.12.4.4.72.88.8 1.52.16.72-.08 1.36-.56 1.92-.48.48-1.04.48-1.68.24-.48-.24-.88-.64-1.04-1.2-.16-.48-.4-.88-.4-1.36-.16-1.44-1.2-2-2.32-2.64-.08.48-.24.88-.32 1.28-.4 2.24-.96 4.48-1.84 6.64-.56 1.44-1.44 2.64-2.48 3.76-1.28 1.36-2.56 2.88-4.32 3.84-1.76.96-3.6 1.76-5.6 1.6-3.04-.24-5.6-1.52-7.28-4.24-.8-1.2-.96-2.64-.64-4 .8-3.76 3.04-6.48 6.08-8.56 2.96-2.08 6.32-3.12 9.92-3.12.32 0 .64-.08.96-.08.96-.08.96-.08 1.12-1.04.4-2.16.56-4.4.64-6.56.08-1.36.16-2.8.08-4.16-.08-2.4 0-4.72-.24-7.12-.08-.64 0-1.36-.16-2.08-.24.64-.56 1.28-.8 2-1.52 4.32-3.04 8.56-4.4 12.96-.24.8-.64 1.68-1.36 2.32-.64.56-1.36.8-2.24.48-2-.72-3.36-2.08-4.24-3.92-.72-1.44-1.04-2.96-1.04-4.56-.16-4.24.32-8.48 1.2-12.64.16-.56.4-1.2.56-1.84.32-1.12 2-1.44 2.88-.72.56.56 1.12 1.2 1.76 1.84.48.56.56 1.28.32 2-.8 2.32-1.2 4.8-1.6 7.2l-.24 3.12c-.08 2.24-.32 4.48 0 6.8 0 0 .08.08.08.16zm8.16 7.84h-.56c-2.96.4-5.76 1.28-8.32 2.88-2.88 1.84-4.88 4.4-5.92 7.68-.16.56-.32 1.12-.24 1.68 0 1.68 1.28 2.8 2.96 2.4 2-.4 3.84-1.2 5.44-2.56 2.72-2.4 4.8-5.28 5.84-8.88.32-.96.64-2 .8-3.2z" fill="#6B7280"/><path d="M13.674 43.72c2.96.16 6-.16 8.96-.16 1.76.08 3.44.16 5.12.4.96.16 1.92.48 2.72 1.04.24.16.48.32.64.48 1.68 2.16 2.96 4.4 2.96 7.28-.08 1.92-.48 3.76-1.44 5.44-1.28 2.32-2.4 4.64-4 6.8s-3.44 4.08-5.6 5.68c-1.76 1.2-3.44 2.48-5.44 3.36-2.8 1.28-5.52 1.12-8.16-.24-.96-.56-1.84-1.12-2.72-1.76-1.36-.96-2.24-2.32-3.12-3.76-.08-.24-.24-.4-.08-.64.24-.24.48-.08.64-.08.4.16.72.4.96.72.24.32.48.64.8.96.96.8 2.16.64 3.28.56.72-.16 1.44-.4 2.16-.72 4.24-2.16 7.84-5.04 10.88-8.64 2.16-2.56 4.08-5.36 5.6-8.32.56-1.04.88-2.16 1.04-3.36.08-.32-.08-.48-.4-.56-1.36 0-2.64-.16-4-.24-1.68-.08-3.28 0-4.96 0-2.64-.08-5.28-.08-7.92-.48-3.44-.56-6.16-2.24-8.24-5.04-2-2.64-2.8-5.6-2.48-8.8.24-2.4 1.12-4.64 2.16-6.88 1.76-3.44 4-6.64 6.56-9.6 2.48-2.88 5.2-5.44 8.56-7.28 1.68-.88 3.36-1.6 5.2-1.84 2.4-.4 4.56.16 6.32 1.92 1.28 1.44 2.48 3.04 3.28 4.8.4.88.56 1.84.64 2.8.16 2.32-.16 4.56-.56 6.72-.56 2.96-1.2 5.84-2.4 8.64-.72 1.76-1.68 3.44-2.88 4.88-.4.48-.88.88-1.44 1.12-1.2.48-2.48-.08-3.04-1.2-.4-.64-.24-1.28.4-1.76.16-.16.4-.24.56-.4.72-.48 1.36-1.12 1.76-2 1.68-4.08 2.72-8.4 3.2-12.8.16-1.68.16-3.28.08-4.96 0-.88-.32-1.76-.56-2.64-.08-.4-.32-.48-.72-.48-.56 0-1.2.16-1.76.32-2.16.72-4.08 1.76-5.92 3.12-3.92 3.04-7.12 6.8-10 10.88-2 2.88-3.6 5.92-4.56 9.36-.48 1.76-.4 3.44.08 5.12.08.4.32.72.64.96 1.12.88 2.48 1.2 3.84 1.28 1.12.08 2.24 0 3.36 0zM43.2 30.28c-3.6.64-7.04.88-10.56.96-1.6 0-3.28-.32-4.88-.8-1.12-.32-2.08-1.04-2.8-2.08-1.12-1.52-.88-3.76.48-4.96.24-.32.64-.56 1.04-.64.56-.08 1.04.08 1.28.48.32.4.24.88-.08 1.36-.16.32-.56.48-.88.8.56.64 1.12 1.12 1.84 1.52 2.32 1.12 4.8 1.76 7.44 1.84 2.24 0 4.48-.08 6.72-.4.8-.16.8-.16.96-.88.4-2.24.88-4.48 1.36-6.72.56-2.72 1.36-5.28 2.08-7.92.32-1.12 2-1.6 2.8-.8.8.8 1.6 1.52 2.16 2.56.24.56.32 1.12 0 1.76-.72 1.28-.96 2.72-1.28 4.08-.48 2-.8 4-1.12 6.08a86.92 86.92 0 005.44-1.76c2.8-.96 5.68-1.84 8.64-2.4 2.16-.32 4.24-.56 6.4-.08 1.2.24 2.4.8 3.44 1.52 1.6 1.2 2.24 2.88 1.92 4.88-.08.64-.48 1.28-.96 1.68-.48.4-.96.4-1.36.16-.4-.4-.4-.8 0-1.36v-.08c.72-.96.72-.96-.32-1.68-1.36-.88-2.88-1.12-4.48-1.2-4.72-.32-9.44.08-14.08 1.36-1.44.4-2.8.8-4.24 1.04-.64.16-.88.4-.96 1.04-.48 3.28-1.12 6.64-1.44 9.92-.24 2.96-.64 5.92-.72 8.88-.08 2.88-.08 5.76-.08 8.64-.08 2.8.24 5.52.96 8.16 0 .24.08.48.16.64.4 1.36 1.44 1.68 2.72 1.04 1.12-.64 1.84-1.6 2.48-2.56C55.6 60.76 57.52 57 58.96 53c.16-.48.4-.96.56-1.44.16-.24.4-.56.8-.4.32.08.64.4.56.8 0 .48-.08.88-.24 1.28-1.52 4.4-3.2 8.64-5.6 12.64-.56.96-1.12 2-2.08 2.72-.88.64-1.84.88-2.8.8-2.8-.24-4.64-1.92-6-4.16-.96-1.68-1.44-3.52-1.76-5.44-.56-3.36-.64-6.72-.56-10.16v-2.8c.16-4.72.4-9.44 1.12-14.08.08-.8.16-1.6.24-2.48zm16.53 25.76c.16-1.84.32-4.4 1.2-6.8.96-2.64 2.64-4.72 5.28-5.84.72-.32 1.52-.48 2.24-.56 1.6-.16 2.88.24 3.84 1.52.72.88 1.44 1.68 1.68 2.8.08.48.16.96.08 1.36-.32 2.08-1.2 3.92-2.72 5.44-1.52 1.6-3.28 2.88-5.44 3.52-.32.16-.48.32-.48.64-.08 2 0 4 .96 5.84.24.48.56.8 1.04 1.04 1.6.56 3.12.32 4.64-.4 2.88-1.6 4.88-3.92 6.48-6.8.8-1.44 1.6-2.96 2.08-4.56 0-.08 0-.16.08-.24.24-.32.32-.8.88-.72.4.08.88.64.88 1.2-.08.32-.08.72-.24 1.04-1.28 3.36-2.88 6.48-5.36 9.2-1.12 1.28-2.4 2.32-3.84 3.28-2.32 1.44-5.52 1.44-7.92-.4a14.537 14.537 0 01-4.32-5.04c-.8-1.52-1.2-3.12-1.04-5.52zm6.16-.64c.32-.24.72-.48 1.12-.72 2.72-1.68 3.84-4.32 3.92-7.44.08-.64-.16-.8-.72-.4-.4.32-.72.64-1.04.96-1.2.96-1.84 2.32-2.4 3.6-.48 1.04-.64 2.16-.96 3.28 0 .24-.08.4.08.72zm16.57-7.92c.08-3.52.16-7.04.4-10.56.48-7.12 1.92-13.92 4.24-20.64.8-2 1.92-3.76 3.6-5.2 1.28-1.28 2.8-1.76 4.64-1.2.48.16.96.4 1.28.72 2.08 1.92 3.28 4.16 3.519 6.96.24 2.24.08 4.56-.24 6.8-.4 3.12-1.12 6.16-2.08 9.2-1.68 4.96-3.76 9.76-7.12 13.84-.4.48-.8.96-1.28 1.36-.24.32-.4.56-.4.96 0 3.2 0 6.4.08 9.6.08 1.84.16 3.76.88 5.6.32.96.8 1.2 1.76.8.96-.32 1.76-.88 2.4-1.68 1.36-1.6 2.48-3.44 3.44-5.28.96-2 2.08-3.92 2.64-6.08.16-.64.48-.8.96-.64.8.24 1.28.96 1.04 1.52-.32.72-.72 1.44-1.04 2.16-1.44 2.96-2.8 6-4.56 8.8-.72 1.2-1.6 2.32-2.8 3.12-.72.56-1.52.72-2.32.56-1.28-.16-2.48-.64-3.52-1.52-2.32-1.92-3.68-4.4-4.32-7.2-.56-2.56-.88-5.2-1.12-7.84-.08-1.44-.08-2.8-.08-4.16zm13.84-33.6c-.96.88-1.68 1.76-2.24 2.88-.96 1.76-1.44 3.76-1.92 5.68-.56 2.56-1.12 5.12-1.52 7.76-.4 2.24-.72 4.56-.96 6.8-.24 2.48-.4 5.04-.56 7.52 0 .48-.08.96.08 1.52.32-.16.4-.4.56-.64 2-2.96 3.52-6.16 4.72-9.52 1.92-5.2 3.12-10.48 2.96-16.08 0-1.44-.08-2.8-.4-4.24-.16-.56-.24-1.12-.72-1.68zm18.32 42.48c-.8 1.84-1.6 3.76-2.48 5.68-.72 1.52-1.44 3.04-2.24 4.56-.96 1.76-1.92 2.4-4.08 1.52-2.64-.96-4-2.64-4.24-5.44-.16-2.4.24-4.72.64-7.04.48-2.32 1.2-4.56 2.16-6.64.8-1.76 1.92-3.28 3.52-4.4.88-.64 1.84-1.2 3.04-1.12.16.08.4 0 .56.08 1.68.72 3.28 1.52 4.16 3.28.08.16.16.32.32.48.32.72.32.72 1.2.56.32-.08.64-.08.88.08.8.56 1.68.88 2.4 1.52.56.48.88 1.12.64 2-.72 2.24-.88 4.56-1.12 6.88-.08 1.04-.08 2.16.08 3.2 0 .32.08.64.16.96.24.72.56.96 1.36.8.8-.16 1.44-.64 2-1.2 1.52-1.52 2.64-3.28 3.52-5.2.48-1.2.8-2.4 1.28-3.6.08-.16.16-.4.24-.56.16-.32.4-.64.8-.48.4.16.64.48.64.88-.16.8-.32 1.52-.56 2.24-.56 1.52-1.2 2.96-1.92 4.4-.64 1.44-1.6 2.64-2.64 3.76-1.44 1.52-3.12 1.84-4.96 1.04-2.24-.96-3.92-2.56-4.64-5.04-.24-1.04-.48-2.16-.72-3.2zm-1.44-9.92c-.4.24-.64.56-.8.88-.56 1.04-1.2 2.08-1.6 3.2-1.68 4.24-2.8 8.56-3.52 13.04 0 .32-.08.56.16.88.88-.96 1.52-2 2.16-3.04 1.6-2.88 3.04-5.84 4.88-8.56.8-1.12.96-2.32.32-3.6-.4-.96-.8-2-1.6-2.8zm27.811 20.24c1.36-.96 2.4-2 3.2-3.28 1.84-2.88 3.2-6.08 4.48-9.2.24-.8.56-1.52.88-2.24.16-.4.32-.8.88-.64.4.08.72.8.64 1.2-.16.64-.4 1.2-.56 1.76-1.36 3.44-2.64 6.8-4.16 10.16-.64 1.44-1.36 2.88-2.32 4.08-1.76 2.24-2.56 2.4-5.04.96-1.84-1.12-3.36-2.72-3.68-5.04-.24-1.28 0-2.48.16-3.68.24-1.6.56-3.12.48-4.72v-.8c-.08-.64-.32-1.04-.96-1.36-2.24-.96-3.92-2.64-5.44-4.4-.96-1.12-1.44-2.48-1.68-3.92-.48-2.56-.08-5.12.96-7.52.72-1.76 2.08-2.88 3.92-3.2 1.2-.24 2.24.08 3.04.96l.48.48c1.52 1.28 1.84 2.88 1.44 4.8-.72 2.72-2 5.12-3.68 7.28-.24.24-.64.4-.48.8.08.4.32.72.64 1.04.64.4 1.36.8 2 1.12.88.4 1.68.96 2.32 1.6.48.32.88.72.96 1.28 0 .24.16.4.32.64.8 1.28 1.28 2.64 1.44 4.16.24 1.68.16 3.36-.08 5.12-.08.8-.16 1.6-.16 2.56zm-6-28.96c-.8.64-1.28 1.2-1.52 1.92s-.4 1.36-.48 2c-.32 1.6-.48 3.28 0 5.04 1.76-2.72 2.48-5.6 2-8.96zm21.571 26.88c.48-.08.64-.48.88-.72.88-1.28 1.6-2.64 2.24-4.08 1.52-3.6 2.96-7.2 4.32-10.8.48-1.44.88-2.96 1.68-4.32.08-.16.08-.32.16-.48 0-.48.24-.88.72-.96.56-.08 1.04-.08 1.52.4.88.8 1.2 1.76 1.28 2.96.16 2.24.32 4.48.48 6.8.16 2.32.4 4.56.48 6.88.16 2.56.24 5.04.16 7.52-.08.88-.24 1.84-.32 2.8-.16.72-.16.72.56 1.04 1.6.72 3.12 1.68 4.24 3.12.4.4.72.88.8 1.52.16.72-.08 1.36-.56 1.92-.48.48-1.04.48-1.68.24-.48-.24-.88-.64-1.04-1.2-.16-.48-.4-.88-.4-1.36-.16-1.44-1.2-2-2.32-2.64-.08.48-.24.88-.32 1.28-.4 2.24-.96 4.48-1.84 6.64-.56 1.44-1.44 2.64-2.48 3.76-1.28 1.36-2.56 2.88-4.32 3.84-1.76.96-3.6 1.76-5.6 1.6-3.04-.24-5.6-1.52-7.28-4.24-.8-1.2-.96-2.64-.64-4 .8-3.76 3.04-6.48 6.08-8.56 2.96-2.08 6.32-3.12 9.92-3.12.32 0 .64-.08.96-.08.96-.08.96-.08 1.12-1.04.4-2.16.56-4.4.64-6.56.08-1.36.16-2.8.08-4.16-.08-2.4 0-4.72-.24-7.12-.08-.64 0-1.36-.16-2.08-.24.64-.56 1.28-.8 2-1.52 4.32-3.04 8.56-4.4 12.96-.24.8-.64 1.68-1.36 2.32-.64.56-1.36.8-2.24.48-2-.72-3.36-2.08-4.24-3.92-.72-1.44-1.04-2.96-1.04-4.56-.16-4.24.32-8.48 1.2-12.64.16-.56.4-1.2.56-1.84.32-1.12 2-1.44 2.88-.72.56.56 1.12 1.2 1.76 1.84.48.56.56 1.28.32 2-.8 2.32-1.2 4.8-1.6 7.2l-.24 3.12c-.08 2.24-.32 4.48 0 6.8 0 0 .08.08.08.16zm8.16 7.84h-.56c-2.96.4-5.76 1.28-8.32 2.88-2.88 1.84-4.88 4.4-5.92 7.68-.16.56-.32 1.12-.24 1.68 0 1.68 1.28 2.8 2.96 2.4 2-.4 3.84-1.2 5.44-2.56 2.72-2.4 4.8-5.28 5.84-8.88.32-.96.64-2 .8-3.2z" fill="#000" fill-opacity=".8"/><path opacity=".75" d="M61.837 99h-1.136l-.13-13.137c0-.906.317-1.683.95-2.332.672-.648 1.45-.972 2.332-.972.875 0 1.656.324 2.344.972.648.649.98 1.426.996 2.332l.011.305h-1.136v-.305a2.203 2.203 0 00-.656-1.535c-.454-.43-.97-.644-1.547-.644-.578 0-1.09.214-1.535.644a2.18 2.18 0 00-.633 1.535l.035 2.825h3.387l.011 1.124h-3.386L61.837 99zm14.683 0a8.216 8.216 0 01-5.836-2.414c-1.594-1.617-2.418-3.555-2.473-5.813.008-2.257.79-4.195 2.344-5.812a8.29 8.29 0 012.66-1.781 8.043 8.043 0 013.13-.621c1.093 0 2.14.207 3.14.62a8.355 8.355 0 012.695 1.782c1.594 1.617 2.418 3.555 2.473 5.812-.008 2.258-.79 4.196-2.344 5.813a8.2 8.2 0 01-2.66 1.793A8.043 8.043 0 0176.52 99zm-.012-1.137c1.883 0 3.547-.691 4.993-2.074 1.343-1.39 2.019-3.062 2.027-5.016-.047-1.945-.758-3.617-2.133-5.015-1.469-1.383-3.148-2.074-5.04-2.074-1.882 0-3.546.691-4.991 2.074-1.344 1.398-2.02 3.07-2.028 5.015.047 1.954.758 3.625 2.133 5.016 1.469 1.383 3.149 2.074 5.04 2.074zM95.527 99a8.216 8.216 0 01-5.836-2.414c-1.594-1.617-2.418-3.555-2.473-5.813.008-2.257.79-4.195 2.344-5.812a8.292 8.292 0 012.66-1.781 8.043 8.043 0 013.13-.621 8.13 8.13 0 013.14.62 8.355 8.355 0 012.695 1.782c1.594 1.617 2.418 3.555 2.473 5.812-.008 2.258-.789 4.196-2.344 5.813a8.198 8.198 0 01-2.66 1.793 8.043 8.043 0 01-3.13.621zm-.012-1.137c1.883 0 3.547-.691 4.992-2.074 1.344-1.39 2.02-3.062 2.028-5.016-.047-1.945-.758-3.617-2.133-5.015-1.469-1.383-3.149-2.074-5.04-2.074-1.882 0-3.546.691-4.991 2.074-1.344 1.398-2.02 3.07-2.028 5.015.047 1.954.758 3.625 2.133 5.016 1.469 1.383 3.148 2.074 5.04 2.074zM109.706 99h-3.317l-.164-16.441h3.317c.882 0 1.664.324 2.343.972.649.649.981 1.426.996 2.332l.106 9.82c0 .907-.317 1.688-.949 2.344-.672.649-1.45.973-2.332.973zm-.012-1.137c.586 0 1.098-.215 1.535-.644.414-.422.625-.934.633-1.535l-.106-9.82a2.2 2.2 0 00-.656-1.536c-.453-.43-.969-.644-1.547-.644h-2.179l.14 14.18h2.18z" fill="#898989"/></svg>