<svg width="210" height="100" viewBox="0 0 210 100" fill="none" xmlns="http://www.w3.org/2000/svg"><path d="M87.992 5.416c.768 1.104.624 2.256.096 3.36-.768 1.632-1.872 3.024-3.504 3.936-1.2-.384-1.2-.384-1.248-1.68-.144-.048-.288-.048-.576-.144.192-1.536 1.488-2.4 2.208-3.792-.672-.192-1.248-.384-1.824-.528-3.072-.528-6.144-.384-9.168.096-3.456.576-6.912 1.296-10.32 1.968-.384.048-.72.048-1.296.144l.912-.768c-1.056-.144-1.824.096-2.352.864-.144.192-.096.576-.528.384-.384.768-1.248.336-1.824.864-.528.48-1.344.624-2.064.864-2.448.96-4.896 1.872-7.296 2.928-2.352 1.008-4.704 2.208-7.056 3.36 0-.096-.096-.24-.192-.432-2.448 1.536-4.992 2.88-6.816 5.232.768-.048 1.008-.864 1.92-1.152-1.344 1.584-2.784 2.832-3.264 4.704 1.056 2.016 7.488 6.528 11.136 7.728 0-.144 0-.288.048-.48.384.144.864.192 1.344.384 4.272 1.68 8.544 3.36 12.816 5.088.384.144.816.336 1.2.576 2.304 1.296 4.848 2.064 7.008 3.648 1.728.336 3.024 1.536 4.416 2.496C75.032 47.32 77 50.488 77.96 54.28c.24.96.24 2.064.144 3.072-.24 3.552-2.16 6.288-4.704 8.688-2.928 2.832-6.24 5.088-9.792 7.104-6.912 3.984-14.352 6.72-22.032 8.688-2.496.624-5.04 1.104-7.536 1.632-.24.096-.528.144-.768.096-1.728-.144-3.312.432-4.944.672-1.488.192-3.024.288-4.56.432-.48.048-.96 0-1.44.048a39.099 39.099 0 01-14.736-1.248c-.96-.24-1.92-.576-2.736-1.104-1.056-.672-1.968-1.536-2.88-2.4-.528-.528-.96-1.2-1.44-1.824.816-1.344.048-2.592-.144-4.08.816-1.68 2.016-3.312 3.408-4.8 2.832-3.072 5.856-5.952 9.36-8.304 3.216-2.112 6.48-4.08 10.032-5.472 1.584-.624 3.168-1.104 4.848-1.248.384-.048.384-.048.864.432 1.44-.144 2.928-.336 4.464-.432.672-.048 1.392-.336 2.064.24.048.096.288.048.48 0 .528-.192.672.144.912.624-.384 0-.672-.048-1.152-.048.288.672.528 1.344.816 1.968-.144.624-.528.864-1.152.816-3.936-.144-7.728.528-11.472 1.728-1.584.48-3.216.96-4.56 2.112-.24.192-.624.288-.96.432 0 0 0-.048.048-.048-.384.24-.72.528-1.056.768-4.944 2.976-9.168 6.72-12.48 11.424-.192.24-.384.48-.528.768-.768 1.344-.576 2.16.768 2.928 1.68.96 3.504 1.584 5.424 1.968 3.264.624 6.576.864 9.888.816 1.104 0 2.208-.192 3.408 0-.48.144-.912.24-1.488.432l.624.144c0 .048.048.096.048.192-1.584.192-3.168.432-4.992.72l1.44.24-4.368.672c.912.288 3.744.528 4.176.192 1.392-1.248 3.168-.72 4.848-1.104.048-.144.048-.336.048-.576a45.46 45.46 0 001.872-.816c-.384-.192-.672-.288-1.152-.528 2.352-.288 4.512-.48 6.624-.816 3.216-.576 6.384-1.104 9.552-1.872 8.064-1.968 15.84-4.752 23.04-9.024 2.928-1.728 5.664-3.744 7.872-6.336 1.296-1.488 2.208-3.168 2.544-5.136.384-2.256-.24-4.176-1.824-5.808-1.968-2.064-4.416-3.552-6.912-4.896-1.968-1.056-4.032-1.968-6.096-2.928-2.064-.912-4.128-1.776-6.192-2.64.096-.096.144-.24.288-.48-.48-.144-.912-.336-1.392-.432-1.92-.576-3.936-1.008-5.808-1.68-2.352-.864-4.656-1.92-6.96-2.928-1.824-.816-3.504-1.92-5.04-3.168-.384-.336-.768-.576-1.152-.912-.672-.528-1.392-1.008-1.536-1.968-.48-.72-1.056-1.44-1.44-2.256-.672-1.344-.576-2.736.096-4.032 1.2-2.448 3.168-4.08 5.376-5.568.24-.144.576-.24.864-.24.624.096.912-.288 1.2-.624a3.562 3.562 0 00-.384-.72c1.44-.912 2.784-1.824 4.224-2.64 6.528-3.696 13.536-6.288 20.736-8.352.336-.096.672-.096 1.056-.144.096.192.144.384.24.528-.48-.096-.864 0-1.104.528.48 0 .912 0 1.104-.528.432.24.816.192 1.152-.24 1.152-.144 2.304-.48 3.456-.624 1.632-.192 3.264-.912 4.992-.528.816.192 1.776-.144 2.64-.288-.144-1.056-1.056-.48-1.68-.96 2.688-.192 5.232-.48 7.776-.48 1.296-.048 2.592.336 3.84.72.912.24 1.68.864 1.728 1.968 0 .24.096.432.24.624zM77.816 3.832c2.064.048 4.08.144 6.432.24-2.304-.72-4.32-.432-6.432-.24zM61.208 7.048h.96c-.24-.24-.384-.432-.48-.432-.192 0-.336.144-.528.24 0 .048.048.096.048.192zm-29.28 22.224l.528.288c-.048-.288 0-.48-.096-.72-.048-.144-.192-.24-.432-.528v.96zM77.624 54.04c-.384 1.344-.384 1.344 0 1.776V54.04zm-56.112 4.224c-3.168 1.44-6 3.36-8.688 5.568.192.048.336-.048.48-.096 1.68-.672 3.264-1.488 5.088-1.68.288-.336.528-.672.864-.864 1.68-1.056 3.36-2.064 5.088-3.072.048-.288.144-.576.288-1.104-1.152.48-2.16.816-3.12 1.248zM4.28 70.744c-.768.384-1.248 1.008-1.392 1.872l1.392-1.872zm90.02-15.12c-.143-.096-.24-.24-.335-.384l-.48.336c-.864-.24-.816-.912-.816-1.584.048-2.064-.432-4.08-1.488-5.856-.72-1.248-1.632-2.352-2.496-3.552-.384-.528-.816-1.008-1.248-1.488-1.2-1.44-1.248-2.976-.336-4.608.048-.048.144-.144.144-.192.288-1.824 1.728-2.64 3.12-3.264 2.064-.912 4.272-1.584 6.384-2.352.096-.048.24 0 .48 0-1.008 1.056-2.352 1.392-3.36 2.256 1.152-.384 2.352-.768 3.504-1.2.192-.048.288-.192.48-.24 1.92-.384 2.736-1.872 3.408-3.504l.528-.576c-.048-.048-.096-.048-.096-.096-.144.048-.288.144-.432.192.288-.672.528-1.392.864-2.016 2.352-4.368 4.704-8.736 7.104-13.104.24-.432.528-.768.864-1.296.288.432.528.72.768 1.104.24-.24.48-.528.72-.816.768.24 1.392.72 1.344 1.584-.048.624-.288 1.296-.576 1.824-.912 1.584-2.016 3.12-2.88 4.704-1.488 2.688-2.832 5.472-4.272 8.208-.192.384-.336.816-.576 1.296.816.096 1.536.192 2.256.336 2.208.288 3.648 1.68 4.896 3.408.096.144.144.384.144.576 0 .24-.096.48-.096.72s.096.432.192.672c-.528.528-1.056.672-1.632.144-.24-.192-.432-.288-.768-.192-.24.048-.624-.288-.816-.576-.48-.768-1.152-1.008-2.016-.912-1.392.096-2.832.24-4.368.384a314.792 314.792 0 00-2.592 6.72c-1.392 3.888-2.736 7.776-3.408 11.808-.048.384-.192.768-.336 1.152-.384.912-1.008 1.056-1.776.384zm.337-8.928L97.805 37c-3.216.528-6.72 2.256-7.584 3.744 1.44 1.968 2.928 3.936 4.416 5.952zm-6.336-5.04c.144-.48.336-1.008-.192-1.536-.624.624-.144 1.056.192 1.536zm29.254 10.512c-1.2 0-2.256-.528-3.36-.912.096-.144.192-.24.288-.432-.96-.672-1.488-1.776-2.688-2.16-.288-.096-.48-.48-.72-.72a21.005 21.005 0 01-.96-1.2c-.144-.192-.192-.432-.24-.624-.048-.432-.048-.816-.096-1.248-.912-.048-1.968.72-2.784-.432.048-.336.048-.768.096-1.248.336-.24.672-.48 1.008-.768l-.048.048c1.008.048 2.064.096 2.976-.48.288-.144.624-.288.816-.528a14.7 14.7 0 013.12-2.592c1.008-.72 1.968-1.488 2.688-2.496a4.237 4.237 0 011.008-1.056c.816-.624 1.632-1.2 2.448-1.728 1.008-.672 2.064-1.248 3.12-1.824.672-.384 1.344-.384 2.016 0 .432.24.864.432 1.248.624-.192.144-.672-.288-.624.528l.624-.528c1.392.72 1.68 1.632 1.056 3.024-.384.864-.96 1.536-1.632 2.16-1.872 1.728-4.032 3.072-6.24 4.368-2.16 1.248-4.512 2.016-6.72 2.976-.24.096-.528.192-.72.288.048 2.544 1.488 3.696 5.136 3.984-.144-.144-.192-.288-.336-.432 1.008-.192 1.968-.288 2.88-.576.912-.24 1.824-.672 2.832-1.008.384.24.864.576 1.344.96.912.72.912 1.92-.048 2.448a11.073 11.073 0 01-5.76 1.584h-1.728zm-1.152-11.472c1.824-.672 3.936-2.016 4.8-2.928l-.144-.576c-1.776 1.008-3.312 2.16-4.656 3.504zm-4.272 5.616c.048-.384.096-.624.144-.864-.432.192-.288.48-.144.864zm16.238 9.984c-.144-.384-.192-.576-.336-.864-.192.24-.336.432-.576.816-.144-.384-.336-.624-.288-.816.192-.48.432-.912.672-1.392a3.309 3.309 0 00-.72-.336c.48-.624.912-1.2 1.296-1.824 1.2-1.968 2.304-3.984 3.504-6 .816-1.344 1.728-2.688 2.592-4.032.096-.144.192-.288.24-.48.48-1.152.912-2.352 1.44-3.504 1.584-3.792 3.216-7.632 4.848-11.424.72-1.776 1.488-3.504 2.208-5.28a41.47 41.47 0 001.344-3.888c1.008-3.36 2.4-6.576 3.072-10.032.144-.576.24-1.2.336-1.776.048-.24.096-.48 0-.624-.912-1.536 0-2.688.672-3.984.48.336.864.528 1.2.768 1.008.624 1.536 1.536 1.632 2.736.096 1.92-.288 3.84-.912 5.616a922.499 922.499 0 01-5.76 16.176 259.406 259.406 0 01-4.272 10.656c-1.536 3.552-3.312 6.96-5.28 10.272-1.488 2.496-2.88 5.04-4.368 7.584a3.381 3.381 0 01-.768.912c.192-1.008.96-1.68 1.44-2.544.432-.912 1.056-1.776 1.536-2.688.48-.816.864-1.728 1.44-2.784-.384.24-.528.336-.912.528.24-.672.384-1.152.624-1.632l3.936-7.68c.192-.288.288-.576.48-.912-.624 0-.672.528-.864.816-1.296 2.544-2.544 5.088-3.936 7.632-1.776 3.312-3.6 6.576-5.52 9.984zm16.416-31.104c.048-.048.048-.144.096-.192l-.192-.048c-.048.048-.048.144-.096.192.048.048.144.096.192.048zm5.362 17.52c-1.776 1.248-2.976 3.024-4.368 4.656-.384.48-.624 1.104-1.104 1.92 1.152-.624 2.064-1.152 2.928-1.824 3.12-2.352 6.24-4.704 9.408-7.056l2.352-1.872c.288-.192.624-.288.96-.48l.72 1.632c.624-.144 1.104-.816 1.824-.336.864 1.2.432 2.4 0 3.6-.288.768-.672 1.488-1.056 2.208l-4.032 8.112c-.144.288-.336.576-.528.912-.432-.528-.096-1.008.048-1.44.24-.576.48-1.152.768-1.728.624-.864 1.152-1.776 1.488-2.784-.672.816-1.536 1.584-1.488 2.784-.624.288-.816.912-1.104 1.488-.336.72-.672 1.44-1.104 2.304l-.768-.864c-.144.096-.336.192-.624.336-.192-.192-.384-.384-.624-.576.24-.864.768-1.584.528-2.544-.048-.24.192-.528.336-.816l2.256-4.416c.096-.24.192-.528.432-1.056l-4.128 2.928c-.144 0-.288 0-.432.048-.48-.144-.576-.096-.96.528.192-.048.48-.096.72-.096.384.144.624-.048.816-.336.432-.192.864-.336 1.536-.576-2.112 1.872-4.272 3.264-6.432 4.608-1.152.72-2.352 1.296-3.552 1.92-1.488.768-2.976.528-4.416-.048-.72-.288-1.008-.864-.96-1.68.048-1.68.576-3.216 1.44-4.56 1.056-1.536 2.112-3.024 3.312-4.416 2.544-2.928 5.376-5.568 8.592-7.776 1.152-.768 2.448-1.296 3.792-1.632.576-.144 1.056-.528 1.632-.816.576-.288 1.152-.624 1.776-.768 1.008-.288 1.68.384 2.304 1.104-.192-.048-.384-.144-.672-.24-.048.24-.144.48-.192.816.432.048.864.144 1.248.192.96.96 1.248 2.016.672 3.312-1.056.48-1.152.432-1.776-.48-.192.096-.432.192-.672.336-.144-.144-.336-.24-.48-.384-.096-.144-.144-.288-.288-.576-.624.288-1.248.48-1.776.816a213.677 213.677 0 00-5.472 3.552c-1.008.624-1.92 1.392-2.88 2.064zm1.584 5.76l-.384.144c.048.048.096.096.096.192l.288-.336zm-5.712 1.92l-1.104.528c.288.096.48.192.672.24.096-.192.192-.384.432-.768zm-2.88 1.488c.768.288 1.008.192.864-.192-.288.096-.576.144-.864.192zm42.499-15.216c.384.144.528.384.528.816 0 1.104-.864 2.304-2.112 2.688-.192-.288-.432-.576-.624-.912-.096 0-.144-.048-.24-.048-.432-.048-.912.432-1.344-.048-.048-.048-.384.096-.576.192-.672.288-1.344.624-2.016 1.008-1.536.816-2.832 1.92-4.08 3.072v-.048c-.432.624-.816 1.296-1.344 1.872-.672.864-1.488 1.584-2.208 2.4-.48.576-.912 1.2-1.2 1.824-.576 1.296-1.344 2.448-2.064 3.696l-1.728-.96c-.192-.72-.432-1.536-.624-2.4 2.016-5.472 4.944-10.608 6.624-16.32l1.488.72c-.048.288-.048.624-.096 1.008.432.096.864.144 1.44.24a97.935 97.935 0 01-.768 3.12c.336-.24.624-.432.864-.624 1.728-1.488 3.744-2.544 6-2.976a5.094 5.094 0 011.68-.144c.288 0 .576.192.768.432.336.336.576.816.912 1.2.144.144.48.096.72.192zm-9.264 1.44c2.592-.864 4.944-1.584 7.488-2.4-.72-.576-1.248-.336-1.776-.24-2.016.48-3.888 1.2-5.712 2.64zm-2.016 5.76c.192-.192.528-.288.816-.48-.048-.144-.096-.24-.144-.48-1.296.768-2.208 1.872-3.168 2.928-.192.192-.192.576-.336 1.2 1.104-1.2 1.92-2.208 2.832-3.168zm5.194 30c-.528-.528-1.056-.192-1.632-.432V72.04c-.528.624-.96 1.104-1.344 1.584 0-1.008 1.056-1.488 1.104-2.592-.384.192-.624.336-.96.528.048-.192 0-.336.096-.432 1.92-2.592 3.84-5.184 5.808-7.728l8.304-10.944c1.296-1.68 2.592-3.312 3.84-4.944l.336-.48-1.104.144c-.864.048-1.584-.24-2.304-.72-1.776-1.104-2.352-2.736-2.256-4.704.096-1.392.144-2.784.24-4.128.048-.576 1.2-2.736 1.536-3.072.336-.288.624-.624 1.152-.384.384.192.528.432.528 1.152.48.336.96.672 1.392.912.24 1.008 0 1.68-.624 2.304-.192.192-.336.528-.384.768a77.169 77.169 0 00-.192 3.504c1.2-.096 1.968-.624 2.832-1.104 3.792-2.16 6.768-5.28 9.792-8.304.528-.528 1.104-.96 1.68-1.488.672.768 1.392 1.344 1.68 2.112.24.624.432 1.44-.192 2.16-.96 1.104-1.824 2.256-2.688 3.408l-19.92 25.776-5.28 6.864c-.432.576-.96 1.104-1.44 1.632zm11.52-29.424c.288-.576.192-1.008-.048-1.44a6.545 6.545 0 01-.576-3.024c.048-.528 0-1.104 0-1.68-.288 2.064-.24 4.128.624 6.144z" fill="#06F6C6"/><path d="M87.992 5.416c.768 1.104.624 2.256.096 3.36-.768 1.632-1.872 3.024-3.504 3.936-1.2-.384-1.2-.384-1.248-1.68-.144-.048-.288-.048-.576-.144.192-1.536 1.488-2.4 2.208-3.792-.672-.192-1.248-.384-1.824-.528-3.072-.528-6.144-.384-9.168.096-3.456.576-6.912 1.296-10.32 1.968-.384.048-.72.048-1.296.144l.912-.768c-1.056-.144-1.824.096-2.352.864-.144.192-.096.576-.528.384-.384.768-1.248.336-1.824.864-.528.48-1.344.624-2.064.864-2.448.96-4.896 1.872-7.296 2.928-2.352 1.008-4.704 2.208-7.056 3.36 0-.096-.096-.24-.192-.432-2.448 1.536-4.992 2.88-6.816 5.232.768-.048 1.008-.864 1.92-1.152-1.344 1.584-2.784 2.832-3.264 4.704 1.056 2.016 7.488 6.528 11.136 7.728 0-.144 0-.288.048-.48.384.144.864.192 1.344.384 4.272 1.68 8.544 3.36 12.816 5.088.384.144.816.336 1.2.576 2.304 1.296 4.848 2.064 7.008 3.648 1.728.336 3.024 1.536 4.416 2.496C75.032 47.32 77 50.488 77.96 54.28c.24.96.24 2.064.144 3.072-.24 3.552-2.16 6.288-4.704 8.688-2.928 2.832-6.24 5.088-9.792 7.104-6.912 3.984-14.352 6.72-22.032 8.688-2.496.624-5.04 1.104-7.536 1.632-.24.096-.528.144-.768.096-1.728-.144-3.312.432-4.944.672-1.488.192-3.024.288-4.56.432-.48.048-.96 0-1.44.048a39.099 39.099 0 01-14.736-1.248c-.96-.24-1.92-.576-2.736-1.104-1.056-.672-1.968-1.536-2.88-2.4-.528-.528-.96-1.2-1.44-1.824.816-1.344.048-2.592-.144-4.08.816-1.68 2.016-3.312 3.408-4.8 2.832-3.072 5.856-5.952 9.36-8.304 3.216-2.112 6.48-4.08 10.032-5.472 1.584-.624 3.168-1.104 4.848-1.248.384-.048.384-.048.864.432 1.44-.144 2.928-.336 4.464-.432.672-.048 1.392-.336 2.064.24.048.096.288.048.48 0 .528-.192.672.144.912.624-.384 0-.672-.048-1.152-.048.288.672.528 1.344.816 1.968-.144.624-.528.864-1.152.816-3.936-.144-7.728.528-11.472 1.728-1.584.48-3.216.96-4.56 2.112-.24.192-.624.288-.96.432 0 0 0-.048.048-.048-.384.24-.72.528-1.056.768-4.944 2.976-9.168 6.72-12.48 11.424-.192.24-.384.48-.528.768-.768 1.344-.576 2.16.768 2.928 1.68.96 3.504 1.584 5.424 1.968 3.264.624 6.576.864 9.888.816 1.104 0 2.208-.192 3.408 0-.48.144-.912.24-1.488.432l.624.144c0 .048.048.096.048.192-1.584.192-3.168.432-4.992.72l1.44.24-4.368.672c.912.288 3.744.528 4.176.192 1.392-1.248 3.168-.72 4.848-1.104.048-.144.048-.336.048-.576a45.46 45.46 0 001.872-.816c-.384-.192-.672-.288-1.152-.528 2.352-.288 4.512-.48 6.624-.816 3.216-.576 6.384-1.104 9.552-1.872 8.064-1.968 15.84-4.752 23.04-9.024 2.928-1.728 5.664-3.744 7.872-6.336 1.296-1.488 2.208-3.168 2.544-5.136.384-2.256-.24-4.176-1.824-5.808-1.968-2.064-4.416-3.552-6.912-4.896-1.968-1.056-4.032-1.968-6.096-2.928-2.064-.912-4.128-1.776-6.192-2.64.096-.096.144-.24.288-.48-.48-.144-.912-.336-1.392-.432-1.92-.576-3.936-1.008-5.808-1.68-2.352-.864-4.656-1.92-6.96-2.928-1.824-.816-3.504-1.92-5.04-3.168-.384-.336-.768-.576-1.152-.912-.672-.528-1.392-1.008-1.536-1.968-.48-.72-1.056-1.44-1.44-2.256-.672-1.344-.576-2.736.096-4.032 1.2-2.448 3.168-4.08 5.376-5.568.24-.144.576-.24.864-.24.624.096.912-.288 1.2-.624a3.562 3.562 0 00-.384-.72c1.44-.912 2.784-1.824 4.224-2.64 6.528-3.696 13.536-6.288 20.736-8.352.336-.096.672-.096 1.056-.144.096.192.144.384.24.528-.48-.096-.864 0-1.104.528.48 0 .912 0 1.104-.528.432.24.816.192 1.152-.24 1.152-.144 2.304-.48 3.456-.624 1.632-.192 3.264-.912 4.992-.528.816.192 1.776-.144 2.64-.288-.144-1.056-1.056-.48-1.68-.96 2.688-.192 5.232-.48 7.776-.48 1.296-.048 2.592.336 3.84.72.912.24 1.68.864 1.728 1.968 0 .24.096.432.24.624zM77.816 3.832c2.064.048 4.08.144 6.432.24-2.304-.72-4.32-.432-6.432-.24zM61.208 7.048h.96c-.24-.24-.384-.432-.48-.432-.192 0-.336.144-.528.24 0 .048.048.096.048.192zm-29.28 22.224l.528.288c-.048-.288 0-.48-.096-.72-.048-.144-.192-.24-.432-.528v.96zM77.624 54.04c-.384 1.344-.384 1.344 0 1.776V54.04zm-56.112 4.224c-3.168 1.44-6 3.36-8.688 5.568.192.048.336-.048.48-.096 1.68-.672 3.264-1.488 5.088-1.68.288-.336.528-.672.864-.864 1.68-1.056 3.36-2.064 5.088-3.072.048-.288.144-.576.288-1.104-1.152.48-2.16.816-3.12 1.248zM4.28 70.744c-.768.384-1.248 1.008-1.392 1.872l1.392-1.872zm90.02-15.12c-.143-.096-.24-.24-.335-.384l-.48.336c-.864-.24-.816-.912-.816-1.584.048-2.064-.432-4.08-1.488-5.856-.72-1.248-1.632-2.352-2.496-3.552-.384-.528-.816-1.008-1.248-1.488-1.2-1.44-1.248-2.976-.336-4.608.048-.048.144-.144.144-.192.288-1.824 1.728-2.64 3.12-3.264 2.064-.912 4.272-1.584 6.384-2.352.096-.048.24 0 .48 0-1.008 1.056-2.352 1.392-3.36 2.256 1.152-.384 2.352-.768 3.504-1.2.192-.048.288-.192.48-.24 1.92-.384 2.736-1.872 3.408-3.504l.528-.576c-.048-.048-.096-.048-.096-.096-.144.048-.288.144-.432.192.288-.672.528-1.392.864-2.016 2.352-4.368 4.704-8.736 7.104-13.104.24-.432.528-.768.864-1.296.288.432.528.72.768 1.104.24-.24.48-.528.72-.816.768.24 1.392.72 1.344 1.584-.048.624-.288 1.296-.576 1.824-.912 1.584-2.016 3.12-2.88 4.704-1.488 2.688-2.832 5.472-4.272 8.208-.192.384-.336.816-.576 1.296.816.096 1.536.192 2.256.336 2.208.288 3.648 1.68 4.896 3.408.096.144.144.384.144.576 0 .24-.096.48-.096.72s.096.432.192.672c-.528.528-1.056.672-1.632.144-.24-.192-.432-.288-.768-.192-.24.048-.624-.288-.816-.576-.48-.768-1.152-1.008-2.016-.912-1.392.096-2.832.24-4.368.384a314.792 314.792 0 00-2.592 6.72c-1.392 3.888-2.736 7.776-3.408 11.808-.048.384-.192.768-.336 1.152-.384.912-1.008 1.056-1.776.384zm.337-8.928L97.805 37c-3.216.528-6.72 2.256-7.584 3.744 1.44 1.968 2.928 3.936 4.416 5.952zm-6.336-5.04c.144-.48.336-1.008-.192-1.536-.624.624-.144 1.056.192 1.536zm29.254 10.512c-1.2 0-2.256-.528-3.36-.912.096-.144.192-.24.288-.432-.96-.672-1.488-1.776-2.688-2.16-.288-.096-.48-.48-.72-.72a21.005 21.005 0 01-.96-1.2c-.144-.192-.192-.432-.24-.624-.048-.432-.048-.816-.096-1.248-.912-.048-1.968.72-2.784-.432.048-.336.048-.768.096-1.248.336-.24.672-.48 1.008-.768l-.048.048c1.008.048 2.064.096 2.976-.48.288-.144.624-.288.816-.528a14.7 14.7 0 013.12-2.592c1.008-.72 1.968-1.488 2.688-2.496a4.237 4.237 0 011.008-1.056c.816-.624 1.632-1.2 2.448-1.728 1.008-.672 2.064-1.248 3.12-1.824.672-.384 1.344-.384 2.016 0 .432.24.864.432 1.248.624-.192.144-.672-.288-.624.528l.624-.528c1.392.72 1.68 1.632 1.056 3.024-.384.864-.96 1.536-1.632 2.16-1.872 1.728-4.032 3.072-6.24 4.368-2.16 1.248-4.512 2.016-6.72 2.976-.24.096-.528.192-.72.288.048 2.544 1.488 3.696 5.136 3.984-.144-.144-.192-.288-.336-.432 1.008-.192 1.968-.288 2.88-.576.912-.24 1.824-.672 2.832-1.008.384.24.864.576 1.344.96.912.72.912 1.92-.048 2.448a11.073 11.073 0 01-5.76 1.584h-1.728zm-1.152-11.472c1.824-.672 3.936-2.016 4.8-2.928l-.144-.576c-1.776 1.008-3.312 2.16-4.656 3.504zm-4.272 5.616c.048-.384.096-.624.144-.864-.432.192-.288.48-.144.864zm16.238 9.984c-.144-.384-.192-.576-.336-.864-.192.24-.336.432-.576.816-.144-.384-.336-.624-.288-.816.192-.48.432-.912.672-1.392a3.309 3.309 0 00-.72-.336c.48-.624.912-1.2 1.296-1.824 1.2-1.968 2.304-3.984 3.504-6 .816-1.344 1.728-2.688 2.592-4.032.096-.144.192-.288.24-.48.48-1.152.912-2.352 1.44-3.504 1.584-3.792 3.216-7.632 4.848-11.424.72-1.776 1.488-3.504 2.208-5.28a41.47 41.47 0 001.344-3.888c1.008-3.36 2.4-6.576 3.072-10.032.144-.576.24-1.2.336-1.776.048-.24.096-.48 0-.624-.912-1.536 0-2.688.672-3.984.48.336.864.528 1.2.768 1.008.624 1.536 1.536 1.632 2.736.096 1.92-.288 3.84-.912 5.616a922.499 922.499 0 01-5.76 16.176 259.406 259.406 0 01-4.272 10.656c-1.536 3.552-3.312 6.96-5.28 10.272-1.488 2.496-2.88 5.04-4.368 7.584a3.381 3.381 0 01-.768.912c.192-1.008.96-1.68 1.44-2.544.432-.912 1.056-1.776 1.536-2.688.48-.816.864-1.728 1.44-2.784-.384.24-.528.336-.912.528.24-.672.384-1.152.624-1.632l3.936-7.68c.192-.288.288-.576.48-.912-.624 0-.672.528-.864.816-1.296 2.544-2.544 5.088-3.936 7.632-1.776 3.312-3.6 6.576-5.52 9.984zm16.416-31.104c.048-.048.048-.144.096-.192l-.192-.048c-.048.048-.048.144-.096.192.048.048.144.096.192.048zm5.362 17.52c-1.776 1.248-2.976 3.024-4.368 4.656-.384.48-.624 1.104-1.104 1.92 1.152-.624 2.064-1.152 2.928-1.824 3.12-2.352 6.24-4.704 9.408-7.056l2.352-1.872c.288-.192.624-.288.96-.48l.72 1.632c.624-.144 1.104-.816 1.824-.336.864 1.2.432 2.4 0 3.6-.288.768-.672 1.488-1.056 2.208l-4.032 8.112c-.144.288-.336.576-.528.912-.432-.528-.096-1.008.048-1.44.24-.576.48-1.152.768-1.728.624-.864 1.152-1.776 1.488-2.784-.672.816-1.536 1.584-1.488 2.784-.624.288-.816.912-1.104 1.488-.336.72-.672 1.44-1.104 2.304l-.768-.864c-.144.096-.336.192-.624.336-.192-.192-.384-.384-.624-.576.24-.864.768-1.584.528-2.544-.048-.24.192-.528.336-.816l2.256-4.416c.096-.24.192-.528.432-1.056l-4.128 2.928c-.144 0-.288 0-.432.048-.48-.144-.576-.096-.96.528.192-.048.48-.096.72-.096.384.144.624-.048.816-.336.432-.192.864-.336 1.536-.576-2.112 1.872-4.272 3.264-6.432 4.608-1.152.72-2.352 1.296-3.552 1.92-1.488.768-2.976.528-4.416-.048-.72-.288-1.008-.864-.96-1.68.048-1.68.576-3.216 1.44-4.56 1.056-1.536 2.112-3.024 3.312-4.416 2.544-2.928 5.376-5.568 8.592-7.776 1.152-.768 2.448-1.296 3.792-1.632.576-.144 1.056-.528 1.632-.816.576-.288 1.152-.624 1.776-.768 1.008-.288 1.68.384 2.304 1.104-.192-.048-.384-.144-.672-.24-.048.24-.144.48-.192.816.432.048.864.144 1.248.192.96.96 1.248 2.016.672 3.312-1.056.48-1.152.432-1.776-.48-.192.096-.432.192-.672.336-.144-.144-.336-.24-.48-.384-.096-.144-.144-.288-.288-.576-.624.288-1.248.48-1.776.816a213.677 213.677 0 00-5.472 3.552c-1.008.624-1.92 1.392-2.88 2.064zm1.584 5.76l-.384.144c.048.048.096.096.096.192l.288-.336zm-5.712 1.92l-1.104.528c.288.096.48.192.672.24.096-.192.192-.384.432-.768zm-2.88 1.488c.768.288 1.008.192.864-.192-.288.096-.576.144-.864.192zm42.499-15.216c.384.144.528.384.528.816 0 1.104-.864 2.304-2.112 2.688-.192-.288-.432-.576-.624-.912-.096 0-.144-.048-.24-.048-.432-.048-.912.432-1.344-.048-.048-.048-.384.096-.576.192-.672.288-1.344.624-2.016 1.008-1.536.816-2.832 1.92-4.08 3.072v-.048c-.432.624-.816 1.296-1.344 1.872-.672.864-1.488 1.584-2.208 2.4-.48.576-.912 1.2-1.2 1.824-.576 1.296-1.344 2.448-2.064 3.696l-1.728-.96c-.192-.72-.432-1.536-.624-2.4 2.016-5.472 4.944-10.608 6.624-16.32l1.488.72c-.048.288-.048.624-.096 1.008.432.096.864.144 1.44.24a97.935 97.935 0 01-.768 3.12c.336-.24.624-.432.864-.624 1.728-1.488 3.744-2.544 6-2.976a5.094 5.094 0 011.68-.144c.288 0 .576.192.768.432.336.336.576.816.912 1.2.144.144.48.096.72.192zm-9.264 1.44c2.592-.864 4.944-1.584 7.488-2.4-.72-.576-1.248-.336-1.776-.24-2.016.48-3.888 1.2-5.712 2.64zm-2.016 5.76c.192-.192.528-.288.816-.48-.048-.144-.096-.24-.144-.48-1.296.768-2.208 1.872-3.168 2.928-.192.192-.192.576-.336 1.2 1.104-1.2 1.92-2.208 2.832-3.168zm5.194 30c-.528-.528-1.056-.192-1.632-.432V72.04c-.528.624-.96 1.104-1.344 1.584 0-1.008 1.056-1.488 1.104-2.592-.384.192-.624.336-.96.528.048-.192 0-.336.096-.432 1.92-2.592 3.84-5.184 5.808-7.728l8.304-10.944c1.296-1.68 2.592-3.312 3.84-4.944l.336-.48-1.104.144c-.864.048-1.584-.24-2.304-.72-1.776-1.104-2.352-2.736-2.256-4.704.096-1.392.144-2.784.24-4.128.048-.576 1.2-2.736 1.536-3.072.336-.288.624-.624 1.152-.384.384.192.528.432.528 1.152.48.336.96.672 1.392.912.24 1.008 0 1.68-.624 2.304-.192.192-.336.528-.384.768a77.169 77.169 0 00-.192 3.504c1.2-.096 1.968-.624 2.832-1.104 3.792-2.16 6.768-5.28 9.792-8.304.528-.528 1.104-.96 1.68-1.488.672.768 1.392 1.344 1.68 2.112.24.624.432 1.44-.192 2.16-.96 1.104-1.824 2.256-2.688 3.408l-19.92 25.776-5.28 6.864c-.432.576-.96 1.104-1.44 1.632zm11.52-29.424c.288-.576.192-1.008-.048-1.44a6.545 6.545 0 01-.576-3.024c.048-.528 0-1.104 0-1.68-.288 2.064-.24 4.128.624 6.144z" fill="#000" fill-opacity=".6"/><g opacity=".5"><path d="M91.8 93h-1.5l-.22-20.422h-2.906l-.015-1.5h7.328l.016 1.5h-2.907L91.8 93zm15.029 0h-1.5l-.093-8.719h-5.829L99.501 93h-1.515l-.172-17.516c0-1.208.422-2.244 1.265-3.109.896-.865 1.933-1.297 3.11-1.297 1.166 0 2.208.432 3.125 1.297.864.865 1.307 1.901 1.328 3.11L106.829 93zm-1.609-10.219l-.078-7.297a2.94 2.94 0 00-.875-2.046c-.604-.573-1.292-.86-2.063-.86-.77 0-1.453.287-2.046.86a2.905 2.905 0 00-.844 2.046l.078 7.297h5.828zM116.594 93h-1.782l-5.062-21.922h1.531l4.453 19.219 4.954-19.219h1.546L116.594 93zm13.092 0c-1.177 0-2.219-.432-3.125-1.297-.864-.875-1.312-1.916-1.344-3.125l-.125-13.094c0-1.208.422-2.244 1.266-3.109.896-.865 1.932-1.297 3.109-1.297 1.167 0 2.209.432 3.125 1.297.865.865 1.308 1.901 1.329 3.11l.015.406h-1.515v-.407a2.94 2.94 0 00-.875-2.046c-.605-.573-1.292-.86-2.063-.86-.771 0-1.453.287-2.047.86a2.91 2.91 0 00-.844 2.046l.047 3.766h4.516l.016 1.5h-4.516l.078 7.828c.021.802.313 1.484.875 2.047.604.573 1.292.86 2.063.86.77 0 1.453-.287 2.046-.86a2.865 2.865 0 00.844-2.047l-.015-.406h1.515v.406c0 1.209-.422 2.25-1.265 3.125-.896.865-1.933 1.297-3.11 1.297zm16.686 0h-8.843l-.219-21.922h1.5l.219 20.406h7.328l.015 1.516z" fill="#6B7280"/><path d="M91.8 93h-1.5l-.22-20.422h-2.906l-.015-1.5h7.328l.016 1.5h-2.907L91.8 93zm15.029 0h-1.5l-.093-8.719h-5.829L99.501 93h-1.515l-.172-17.516c0-1.208.422-2.244 1.265-3.109.896-.865 1.933-1.297 3.11-1.297 1.166 0 2.208.432 3.125 1.297.864.865 1.307 1.901 1.328 3.11L106.829 93zm-1.609-10.219l-.078-7.297a2.94 2.94 0 00-.875-2.046c-.604-.573-1.292-.86-2.063-.86-.77 0-1.453.287-2.046.86a2.905 2.905 0 00-.844 2.046l.078 7.297h5.828zM116.594 93h-1.782l-5.062-21.922h1.531l4.453 19.219 4.954-19.219h1.546L116.594 93zm13.092 0c-1.177 0-2.219-.432-3.125-1.297-.864-.875-1.312-1.916-1.344-3.125l-.125-13.094c0-1.208.422-2.244 1.266-3.109.896-.865 1.932-1.297 3.109-1.297 1.167 0 2.209.432 3.125 1.297.865.865 1.308 1.901 1.329 3.11l.015.406h-1.515v-.407a2.94 2.94 0 00-.875-2.046c-.605-.573-1.292-.86-2.063-.86-.771 0-1.453.287-2.047.86a2.91 2.91 0 00-.844 2.046l.047 3.766h4.516l.016 1.5h-4.516l.078 7.828c.021.802.313 1.484.875 2.047.604.573 1.292.86 2.063.86.77 0 1.453-.287 2.046-.86a2.865 2.865 0 00.844-2.047l-.015-.406h1.515v.406c0 1.209-.422 2.25-1.265 3.125-.896.865-1.933 1.297-3.11 1.297zm16.686 0h-8.843l-.219-21.922h1.5l.219 20.406h7.328l.015 1.516z" fill="#000" fill-opacity=".8"/></g></svg>