<svg width="134" height="47" viewBox="0 0 134 47" fill="none" xmlns="http://www.w3.org/2000/svg"><path d="M11.668 10.16c1.573 0 2.787.173 3.64.52.853.32 1.587.667 2.2 1.04.32.187.573.333.76.44.213.08.413.12.6.12.427 0 .72-.587.88-1.76h.92c-.027.507-.067 1.12-.12 1.84-.027.693-.053 1.613-.08 2.76v4.52h-.92a13.336 13.336 0 00-.96-4.04c-.534-1.307-1.294-2.373-2.28-3.2-.96-.853-2.147-1.28-3.56-1.28-1.28 0-2.333.36-3.16 1.08-.827.72-1.24 1.72-1.24 3 0 1.067.266 1.987.8 2.76.533.747 1.306 1.48 2.32 2.2 1.04.72 2.293 1.587 3.76 2.6a38.409 38.409 0 013.44 2.48c1.013.827 1.826 1.76 2.44 2.8.613 1.04.92 2.28.92 3.72 0 1.76-.467 3.213-1.4 4.36-.907 1.147-2.107 2.013-3.6 2.6-1.493.56-3.133.84-4.92.84-1.654 0-2.974-.16-3.96-.48-.987-.32-1.814-.653-2.48-1-.587-.373-1.04-.56-1.36-.56-.427 0-.72.587-.88 1.76h-.92c.053-.64.08-1.387.08-2.24.026-.853.04-1.96.04-3.32.026-1.387.04-3.133.04-5.24h.92c.106 1.76.4 3.413.88 4.96.506 1.52 1.266 2.747 2.28 3.68 1.04.933 2.413 1.4 4.12 1.4 1.386 0 2.56-.373 3.52-1.12.96-.747 1.44-1.867 1.44-3.36 0-1.653-.56-3.013-1.68-4.08-1.12-1.093-2.56-2.213-4.32-3.36a67.044 67.044 0 01-3.52-2.48c-1.094-.827-1.974-1.773-2.64-2.84-.64-1.067-.96-2.333-.96-3.8 0-1.68.413-3.053 1.24-4.12.853-1.093 1.96-1.893 3.32-2.4a12.15 12.15 0 014.4-.8zm20.28 1.6v6.56h4.72v.8h-4.72v16.16c0 .8.146 1.373.44 1.72.293.32.733.48 1.32.48.48 0 .96-.173 1.44-.52.48-.373.906-1 1.28-1.88l.68.36c-.427 1.2-1.08 2.187-1.96 2.96-.854.773-2.028 1.16-3.52 1.16-.88 0-1.654-.12-2.32-.36a4.097 4.097 0 01-1.68-1 4.271 4.271 0 01-1.16-2.16c-.188-.88-.28-2.013-.28-3.4V19.12h-3.36v-.8h3.36v-5.28c1.12 0 2.146-.093 3.08-.28.96-.213 1.852-.547 2.68-1zm15.305 6c2.347 0 4.187.693 5.52 2.08 1.334 1.387 2 3.653 2 6.8h-13.16l-.08-.76h8.2c.027-1.307-.053-2.507-.24-3.6-.186-1.12-.48-2.013-.88-2.68-.4-.667-.933-1-1.6-1-.933 0-1.733.587-2.4 1.76-.64 1.173-1.026 3.12-1.16 5.84l.12.24-.08 1v1.08c0 1.84.254 3.333.76 4.48.534 1.147 1.2 1.987 2 2.52.8.507 1.614.76 2.44.76.8 0 1.667-.2 2.6-.6.96-.4 1.854-1.267 2.68-2.6l.72.24c-.32 1.013-.826 2-1.52 2.96a8.333 8.333 0 01-2.64 2.36c-1.066.613-2.346.92-3.84.92-1.813 0-3.413-.387-4.8-1.16-1.386-.773-2.48-1.947-3.28-3.52-.773-1.573-1.16-3.573-1.16-6 0-2.48.414-4.547 1.24-6.2.854-1.653 2.014-2.88 3.48-3.68 1.494-.827 3.187-1.24 5.08-1.24zM64.45 7.68v27.6c0 1.12.186 1.88.56 2.28.4.4 1.066.6 2 .6V39a94.96 94.96 0 00-2.28-.08 58.632 58.632 0 00-3.08-.08c-1.04 0-2.094.027-3.16.08-1.04.027-1.827.053-2.36.08v-.84c.933 0 1.586-.2 1.96-.6.4-.4.6-1.16.6-2.28v-22.8c0-1.2-.187-2.08-.56-2.64-.347-.587-1.014-.88-2-.88v-.84c.853.08 1.68.12 2.48.12 1.093 0 2.133-.04 3.12-.12a24.193 24.193 0 002.72-.44zm8.742 31.6c-1.787 0-3.08-.467-3.88-1.4-.8-.933-1.2-2.067-1.2-3.4 0-1.147.253-2.08.76-2.8a6.22 6.22 0 012.04-1.76c.826-.48 1.693-.867 2.6-1.16.933-.32 1.813-.627 2.64-.92.853-.32 1.533-.68 2.04-1.08.533-.4.8-.907.8-1.52v-3.12c0-.693-.12-1.307-.36-1.84-.214-.56-.56-.987-1.04-1.28-.454-.293-1.054-.44-1.8-.44-.534 0-1.067.08-1.6.24-.534.133-.974.373-1.32.72.746.267 1.32.68 1.72 1.24.426.533.64 1.147.64 1.84 0 .907-.32 1.627-.96 2.16-.614.533-1.347.8-2.2.8-.96 0-1.694-.293-2.2-.88-.48-.613-.72-1.347-.72-2.2 0-.773.186-1.413.56-1.92.4-.507.946-.987 1.64-1.44.746-.427 1.64-.76 2.68-1a15.65 15.65 0 013.44-.36c1.226 0 2.333.133 3.32.4.986.24 1.813.693 2.48 1.36.613.613 1.013 1.373 1.2 2.28.186.88.28 2 .28 3.36v10.88c0 .64.066 1.093.2 1.36.133.267.36.4.68.4.266 0 .52-.067.76-.2s.466-.293.68-.48l.4.68c-.56.48-1.214.853-1.96 1.12-.72.24-1.534.36-2.44.36-1.6 0-2.667-.32-3.2-.96a3.877 3.877 0 01-.8-2.28c-.667 1.093-1.494 1.907-2.48 2.44-.96.533-2.094.8-3.4.8zm3.08-2.56c.506 0 .973-.12 1.4-.36.453-.24.893-.667 1.32-1.28v-8.2c-.32.533-.774.987-1.36 1.36a39.5 39.5 0 00-1.76 1.16c-.587.4-1.08.92-1.48 1.56-.4.64-.6 1.493-.6 2.56 0 1.147.24 1.973.72 2.48.48.48 1.066.72 1.76.72zm25.303-18.96c.853 0 1.546.187 2.08.56.533.347.92.8 1.16 1.36.266.56.4 1.147.4 1.76 0 .987-.294 1.8-.88 2.44-.56.613-1.307.92-2.24.92-.934 0-1.667-.227-2.2-.68-.507-.48-.76-1.107-.76-1.88 0-.747.16-1.36.48-1.84a4.866 4.866 0 011.28-1.28 1.791 1.791 0 00-1.12.04c-.694.107-1.32.44-1.88 1a6.053 6.053 0 00-1.28 1.92c-.32.747-.48 1.48-.48 2.2v10.6c0 1.28.306 2.147.92 2.6.64.453 1.586.68 2.84.68V39a139.9 139.9 0 00-2.68-.08c-1.174-.053-2.4-.08-3.68-.08a66.9 66.9 0 00-3.24.08c-1.094.027-1.92.053-2.48.08v-.84c.933 0 1.586-.2 1.96-.6.4-.4.6-1.16.6-2.28v-12.6c0-1.2-.187-2.08-.56-2.64-.347-.587-1.014-.88-2-.88v-.84c.853.08 1.68.12 2.48.12 1.12 0 2.16-.04 3.12-.12a24.193 24.193 0 002.72-.44v3.72a7.31 7.31 0 011.28-1.96 5.694 5.694 0 011.84-1.36c.693-.347 1.466-.52 2.32-.52zm23.672.56v.8c-.507.133-.987.453-1.44.96-.454.48-.894 1.307-1.32 2.48l-5.64 15.84-1.48 2.8-8.72-19.8c-.454-1.04-.907-1.667-1.36-1.88-.427-.24-.8-.36-1.12-.36v-.84c.88.08 1.786.147 2.72.2.96.027 1.88.04 2.76.04a51.45 51.45 0 003-.08c.906-.053 1.76-.107 2.56-.16v.84c-.534 0-1.04.04-1.52.12-.454.053-.774.24-.96.56-.16.293-.08.813.24 1.56l5.04 12.16-.36.24 2.96-8.28c.746-2.16.866-3.733.36-4.72-.507-1.013-1.4-1.573-2.68-1.68v-.8c.613.027 1.28.053 2 .08.72.027 1.346.04 1.88.04a47.292 47.292 0 003.08-.12zm-8.4 20.08l-1.52 4.28c-.507 1.36-1.094 2.307-1.76 2.84-.374.32-.854.56-1.44.72-.587.187-1.267.28-2.04.28-.64 0-1.307-.107-2-.32a3.897 3.897 0 01-1.68-1.04c-.454-.48-.68-1.093-.68-1.84 0-.827.293-1.493.88-2 .586-.48 1.36-.72 2.32-.72.88 0 1.6.213 2.16.64.56.427.84 1.053.84 1.88 0 .533-.174 1.04-.52 1.52-.32.48-.814.84-1.48 1.08.133.027.293.04.48.04h.44c.8 0 1.506-.253 2.12-.76.613-.507 1.12-1.307 1.52-2.4l1.4-4.12.96-.08zm11.464-5c1.04 0 1.867.28 2.48.84.613.533.92 1.28.92 2.24 0 .96-.307 1.72-.92 2.28-.613.533-1.44.8-2.48.8s-1.867-.267-2.48-.8c-.613-.56-.92-1.32-.92-2.28 0-.96.307-1.707.92-2.24.613-.56 1.44-.84 2.48-.84z" fill="#6B7280"/><path d="M11.668 10.16c1.573 0 2.787.173 3.64.52.853.32 1.587.667 2.2 1.04.32.187.573.333.76.44.213.08.413.12.6.12.427 0 .72-.587.88-1.76h.92c-.027.507-.067 1.12-.12 1.84-.027.693-.053 1.613-.08 2.76v4.52h-.92a13.336 13.336 0 00-.96-4.04c-.534-1.307-1.294-2.373-2.28-3.2-.96-.853-2.147-1.28-3.56-1.28-1.28 0-2.333.36-3.16 1.08-.827.72-1.24 1.72-1.24 3 0 1.067.266 1.987.8 2.76.533.747 1.306 1.48 2.32 2.2 1.04.72 2.293 1.587 3.76 2.6a38.409 38.409 0 013.44 2.48c1.013.827 1.826 1.76 2.44 2.8.613 1.04.92 2.28.92 3.72 0 1.76-.467 3.213-1.4 4.36-.907 1.147-2.107 2.013-3.6 2.6-1.493.56-3.133.84-4.92.84-1.654 0-2.974-.16-3.96-.48-.987-.32-1.814-.653-2.48-1-.587-.373-1.04-.56-1.36-.56-.427 0-.72.587-.88 1.76h-.92c.053-.64.08-1.387.08-2.24.026-.853.04-1.96.04-3.32.026-1.387.04-3.133.04-5.24h.92c.106 1.76.4 3.413.88 4.96.506 1.52 1.266 2.747 2.28 3.68 1.04.933 2.413 1.4 4.12 1.4 1.386 0 2.56-.373 3.52-1.12.96-.747 1.44-1.867 1.44-3.36 0-1.653-.56-3.013-1.68-4.08-1.12-1.093-2.56-2.213-4.32-3.36a67.044 67.044 0 01-3.52-2.48c-1.094-.827-1.974-1.773-2.64-2.84-.64-1.067-.96-2.333-.96-3.8 0-1.68.413-3.053 1.24-4.12.853-1.093 1.96-1.893 3.32-2.4a12.15 12.15 0 014.4-.8zm20.28 1.6v6.56h4.72v.8h-4.72v16.16c0 .8.146 1.373.44 1.72.293.32.733.48 1.32.48.48 0 .96-.173 1.44-.52.48-.373.906-1 1.28-1.88l.68.36c-.427 1.2-1.08 2.187-1.96 2.96-.854.773-2.028 1.16-3.52 1.16-.88 0-1.654-.12-2.32-.36a4.097 4.097 0 01-1.68-1 4.271 4.271 0 01-1.16-2.16c-.188-.88-.28-2.013-.28-3.4V19.12h-3.36v-.8h3.36v-5.28c1.12 0 2.146-.093 3.08-.28.96-.213 1.852-.547 2.68-1zm15.305 6c2.347 0 4.187.693 5.52 2.08 1.334 1.387 2 3.653 2 6.8h-13.16l-.08-.76h8.2c.027-1.307-.053-2.507-.24-3.6-.186-1.12-.48-2.013-.88-2.68-.4-.667-.933-1-1.6-1-.933 0-1.733.587-2.4 1.76-.64 1.173-1.026 3.12-1.16 5.84l.12.24-.08 1v1.08c0 1.84.254 3.333.76 4.48.534 1.147 1.2 1.987 2 2.52.8.507 1.614.76 2.44.76.8 0 1.667-.2 2.6-.6.96-.4 1.854-1.267 2.68-2.6l.72.24c-.32 1.013-.826 2-1.52 2.96a8.333 8.333 0 01-2.64 2.36c-1.066.613-2.346.92-3.84.92-1.813 0-3.413-.387-4.8-1.16-1.386-.773-2.48-1.947-3.28-3.52-.773-1.573-1.16-3.573-1.16-6 0-2.48.414-4.547 1.24-6.2.854-1.653 2.014-2.88 3.48-3.68 1.494-.827 3.187-1.24 5.08-1.24zM64.45 7.68v27.6c0 1.12.186 1.88.56 2.28.4.4 1.066.6 2 .6V39a94.96 94.96 0 00-2.28-.08 58.632 58.632 0 00-3.08-.08c-1.04 0-2.094.027-3.16.08-1.04.027-1.827.053-2.36.08v-.84c.933 0 1.586-.2 1.96-.6.4-.4.6-1.16.6-2.28v-22.8c0-1.2-.187-2.08-.56-2.64-.347-.587-1.014-.88-2-.88v-.84c.853.08 1.68.12 2.48.12 1.093 0 2.133-.04 3.12-.12a24.193 24.193 0 002.72-.44zm8.742 31.6c-1.787 0-3.08-.467-3.88-1.4-.8-.933-1.2-2.067-1.2-3.4 0-1.147.253-2.08.76-2.8a6.22 6.22 0 012.04-1.76c.826-.48 1.693-.867 2.6-1.16.933-.32 1.813-.627 2.64-.92.853-.32 1.533-.68 2.04-1.08.533-.4.8-.907.8-1.52v-3.12c0-.693-.12-1.307-.36-1.84-.214-.56-.56-.987-1.04-1.28-.454-.293-1.054-.44-1.8-.44-.534 0-1.067.08-1.6.24-.534.133-.974.373-1.32.72.746.267 1.32.68 1.72 1.24.426.533.64 1.147.64 1.84 0 .907-.32 1.627-.96 2.16-.614.533-1.347.8-2.2.8-.96 0-1.694-.293-2.2-.88-.48-.613-.72-1.347-.72-2.2 0-.773.186-1.413.56-1.92.4-.507.946-.987 1.64-1.44.746-.427 1.64-.76 2.68-1a15.65 15.65 0 013.44-.36c1.226 0 2.333.133 3.32.4.986.24 1.813.693 2.48 1.36.613.613 1.013 1.373 1.2 2.28.186.88.28 2 .28 3.36v10.88c0 .64.066 1.093.2 1.36.133.267.36.4.68.4.266 0 .52-.067.76-.2s.466-.293.68-.48l.4.68c-.56.48-1.214.853-1.96 1.12-.72.24-1.534.36-2.44.36-1.6 0-2.667-.32-3.2-.96a3.877 3.877 0 01-.8-2.28c-.667 1.093-1.494 1.907-2.48 2.44-.96.533-2.094.8-3.4.8zm3.08-2.56c.506 0 .973-.12 1.4-.36.453-.24.893-.667 1.32-1.28v-8.2c-.32.533-.774.987-1.36 1.36a39.5 39.5 0 00-1.76 1.16c-.587.4-1.08.92-1.48 1.56-.4.64-.6 1.493-.6 2.56 0 1.147.24 1.973.72 2.48.48.48 1.066.72 1.76.72zm25.303-18.96c.853 0 1.546.187 2.08.56.533.347.92.8 1.16 1.36.266.56.4 1.147.4 1.76 0 .987-.294 1.8-.88 2.44-.56.613-1.307.92-2.24.92-.934 0-1.667-.227-2.2-.68-.507-.48-.76-1.107-.76-1.88 0-.747.16-1.36.48-1.84a4.866 4.866 0 011.28-1.28 1.791 1.791 0 00-1.12.04c-.694.107-1.32.44-1.88 1a6.053 6.053 0 00-1.28 1.92c-.32.747-.48 1.48-.48 2.2v10.6c0 1.28.306 2.147.92 2.6.64.453 1.586.68 2.84.68V39a139.9 139.9 0 00-2.68-.08c-1.174-.053-2.4-.08-3.68-.08a66.9 66.9 0 00-3.24.08c-1.094.027-1.92.053-2.48.08v-.84c.933 0 1.586-.2 1.96-.6.4-.4.6-1.16.6-2.28v-12.6c0-1.2-.187-2.08-.56-2.64-.347-.587-1.014-.88-2-.88v-.84c.853.08 1.68.12 2.48.12 1.12 0 2.16-.04 3.12-.12a24.193 24.193 0 002.72-.44v3.72a7.31 7.31 0 011.28-1.96 5.694 5.694 0 011.84-1.36c.693-.347 1.466-.52 2.32-.52zm23.672.56v.8c-.507.133-.987.453-1.44.96-.454.48-.894 1.307-1.32 2.48l-5.64 15.84-1.48 2.8-8.72-19.8c-.454-1.04-.907-1.667-1.36-1.88-.427-.24-.8-.36-1.12-.36v-.84c.88.08 1.786.147 2.72.2.96.027 1.88.04 2.76.04a51.45 51.45 0 003-.08c.906-.053 1.76-.107 2.56-.16v.84c-.534 0-1.04.04-1.52.12-.454.053-.774.24-.96.56-.16.293-.08.813.24 1.56l5.04 12.16-.36.24 2.96-8.28c.746-2.16.866-3.733.36-4.72-.507-1.013-1.4-1.573-2.68-1.68v-.8c.613.027 1.28.053 2 .08.72.027 1.346.04 1.88.04a47.292 47.292 0 003.08-.12zm-8.4 20.08l-1.52 4.28c-.507 1.36-1.094 2.307-1.76 2.84-.374.32-.854.56-1.44.72-.587.187-1.267.28-2.04.28-.64 0-1.307-.107-2-.32a3.897 3.897 0 01-1.68-1.04c-.454-.48-.68-1.093-.68-1.84 0-.827.293-1.493.88-2 .586-.48 1.36-.72 2.32-.72.88 0 1.6.213 2.16.64.56.427.84 1.053.84 1.88 0 .533-.174 1.04-.52 1.52-.32.48-.814.84-1.48 1.08.133.027.293.04.48.04h.44c.8 0 1.506-.253 2.12-.76.613-.507 1.12-1.307 1.52-2.4l1.4-4.12.96-.08zm11.464-5c1.04 0 1.867.28 2.48.84.613.533.92 1.28.92 2.24 0 .96-.307 1.72-.92 2.28-.613.533-1.44.8-2.48.8s-1.867-.267-2.48-.8c-.613-.56-.92-1.32-.92-2.28 0-.96.307-1.707.92-2.24.613-.56 1.44-.84 2.48-.84z" fill="#000" fill-opacity=".8"/></svg>