<svg width="103" height="39" viewBox="0 0 103 39" fill="none" xmlns="http://www.w3.org/2000/svg"><path d="M9.283 32.504c-5.472 0-7.56-2.016-7.56-7.308v-1.008h4.284v1.008c0 2.52.756 3.276 3.312 3.276 2.592 0 3.24-.792 3.24-3.312 0-2.16-.432-2.916-2.412-3.528l-3.456-1.08c-3.636-1.116-4.752-3.168-4.752-7.164 0-5.148 1.98-7.092 7.308-7.092 5.328 0 7.308 2.016 7.308 7.236v.72h-4.284v-.72c0-2.484-.648-3.204-2.988-3.204-2.376 0-2.988.756-2.988 3.06 0 2.016.396 2.7 2.304 3.312l3.204 1.008c3.852 1.188 5.112 3.312 5.112 7.452 0 5.328-2.124 7.344-7.632 7.344zm16.806-.36c-3.888 0-5.688-1.836-5.688-5.724v-9.54h-2.556V13.1h2.7V9.176h4.248V13.1h3.744v3.78h-3.744v8.892c0 1.836.432 2.304 2.088 2.304h1.656v4.068H26.09zm10.83.36c-4.751 0-6.731-1.98-6.731-6.444v-7.164c0-4.428 2.052-6.372 6.804-6.372 4.464 0 6.696 1.836 6.696 5.364v1.044c0 2.988-1.296 4.356-4.392 4.86l-4.86.864v1.404c0 1.98.54 2.592 2.592 2.592 1.944 0 2.52-.54 2.52-2.268v-.396h4.068v.54c0 4.104-1.98 5.976-6.696 5.976zM34.437 21.38l3.24-.576c1.44-.252 1.908-.72 1.908-1.872v-.72c0-1.296-.684-1.8-2.556-1.8-2.052 0-2.592.648-2.592 2.52v2.448zM46.274 32V6.8h4.392V32h-4.392zm11.919.432c-2.844 0-4.68-1.764-4.68-5.832 0-4.032 1.727-5.904 5.544-5.904H62.8v-2.088c0-1.728-.54-2.232-2.34-2.232-1.8 0-2.303.504-2.303 2.124v.252h-4.104V18.5c0-4.212 1.836-5.976 6.408-5.976 4.68 0 6.552 1.764 6.552 6.156V32h-3.097l-.611-1.656c-1.44 1.08-3.169 2.088-5.112 2.088zm-.505-6.084c0 1.764.612 2.268 1.62 2.268 1.117 0 2.413-.648 3.492-1.296l.037-3.456h-2.88c-1.657 0-2.269.72-2.269 2.484zM70.341 32V13.064h3.456l.468 1.728c1.332-.864 3.492-2.124 4.787-2.124h1.08v4.356h-.936c-1.331 0-3.42 1.008-4.463 1.584V32H70.34zm11.932 6.804v-3.888h1.98c1.188 0 1.944-.432 2.304-1.692l.612-2.196h-1.512l-5.364-17.964h4.752l2.34 9.036c.36 1.404.72 3.06 1.008 4.788h.108c.252-1.728.576-3.384.9-4.788l2.088-9.036h4.68l-5.688 20.952c-.972 3.672-2.412 4.788-6.156 4.788h-2.052zM95.95 32v-5.076h4.968V32H95.95z" fill="#6B7280"/><path d="M9.283 32.504c-5.472 0-7.56-2.016-7.56-7.308v-1.008h4.284v1.008c0 2.52.756 3.276 3.312 3.276 2.592 0 3.24-.792 3.24-3.312 0-2.16-.432-2.916-2.412-3.528l-3.456-1.08c-3.636-1.116-4.752-3.168-4.752-7.164 0-5.148 1.98-7.092 7.308-7.092 5.328 0 7.308 2.016 7.308 7.236v.72h-4.284v-.72c0-2.484-.648-3.204-2.988-3.204-2.376 0-2.988.756-2.988 3.06 0 2.016.396 2.7 2.304 3.312l3.204 1.008c3.852 1.188 5.112 3.312 5.112 7.452 0 5.328-2.124 7.344-7.632 7.344zm16.806-.36c-3.888 0-5.688-1.836-5.688-5.724v-9.54h-2.556V13.1h2.7V9.176h4.248V13.1h3.744v3.78h-3.744v8.892c0 1.836.432 2.304 2.088 2.304h1.656v4.068H26.09zm10.83.36c-4.751 0-6.731-1.98-6.731-6.444v-7.164c0-4.428 2.052-6.372 6.804-6.372 4.464 0 6.696 1.836 6.696 5.364v1.044c0 2.988-1.296 4.356-4.392 4.86l-4.86.864v1.404c0 1.98.54 2.592 2.592 2.592 1.944 0 2.52-.54 2.52-2.268v-.396h4.068v.54c0 4.104-1.98 5.976-6.696 5.976zM34.437 21.38l3.24-.576c1.44-.252 1.908-.72 1.908-1.872v-.72c0-1.296-.684-1.8-2.556-1.8-2.052 0-2.592.648-2.592 2.52v2.448zM46.274 32V6.8h4.392V32h-4.392zm11.919.432c-2.844 0-4.68-1.764-4.68-5.832 0-4.032 1.727-5.904 5.544-5.904H62.8v-2.088c0-1.728-.54-2.232-2.34-2.232-1.8 0-2.303.504-2.303 2.124v.252h-4.104V18.5c0-4.212 1.836-5.976 6.408-5.976 4.68 0 6.552 1.764 6.552 6.156V32h-3.097l-.611-1.656c-1.44 1.08-3.169 2.088-5.112 2.088zm-.505-6.084c0 1.764.612 2.268 1.62 2.268 1.117 0 2.413-.648 3.492-1.296l.037-3.456h-2.88c-1.657 0-2.269.72-2.269 2.484zM70.341 32V13.064h3.456l.468 1.728c1.332-.864 3.492-2.124 4.787-2.124h1.08v4.356h-.936c-1.331 0-3.42 1.008-4.463 1.584V32H70.34zm11.932 6.804v-3.888h1.98c1.188 0 1.944-.432 2.304-1.692l.612-2.196h-1.512l-5.364-17.964h4.752l2.34 9.036c.36 1.404.72 3.06 1.008 4.788h.108c.252-1.728.576-3.384.9-4.788l2.088-9.036h4.68l-5.688 20.952c-.972 3.672-2.412 4.788-6.156 4.788h-2.052zM95.95 32v-5.076h4.968V32H95.95z" fill="#000" fill-opacity=".8"/></svg>