<svg width="40" height="40" viewBox="0 0 40 40" fill="none" xmlns="http://www.w3.org/2000/svg"><path fill="#A46557" d="M0 0h40v40H0z"/><path d="M15.03 24.935c.046.831.104 1.478.174 1.94.069.438.196.877.38 1.316.347.854.924 1.535 1.732 2.043.808.485 1.766.727 2.875.727a6.43 6.43 0 002.112-.346c.693-.254 1.27-.612 1.732-1.074.762-.692 1.142-1.662 1.142-2.909 0-1.316-.484-2.424-1.454-3.325a9.48 9.48 0 00-.554-.45 3.527 3.527 0 00-.658-.38 6.125 6.125 0 00-.866-.416 13.564 13.564 0 00-1.212-.52l-2.216-.9a32.6 32.6 0 01-1.524-.624 27.06 27.06 0 01-1.109-.52c-.3-.184-.577-.357-.83-.519a6.122 6.122 0 01-.728-.623c-1.2-1.131-1.8-2.482-1.8-4.052 0-.97.184-1.836.553-2.597.37-.785.9-1.443 1.593-1.974.693-.555 1.524-.982 2.494-1.282.97-.3 2.055-.45 3.255-.45 2.47 0 4.364.566 5.68 1.697 1.339 1.108 2.032 2.747 2.078 4.918h-3.22c-.047-.785-.116-1.386-.209-1.801a6.086 6.086 0 00-.45-1.281c-.346-.762-.9-1.363-1.662-1.801-.74-.44-1.582-.658-2.528-.658a5.19 5.19 0 00-1.836.311 4.689 4.689 0 00-1.42.866 3.755 3.755 0 00-.935 1.282 4.348 4.348 0 00-.312 1.662c0 1.016.312 1.858.935 2.528.647.646 1.744 1.281 3.29 1.905l2.494.97c.508.207.958.403 1.35.588.393.162.74.323 1.04.485.3.139.565.289.796.45.254.162.497.335.727.52a5.75 5.75 0 011.663 2.147c.392.808.588 1.697.588 2.666 0 2.078-.727 3.695-2.181 4.849C24.577 31.434 22.569 32 19.983 32c-2.632 0-4.641-.6-6.026-1.8-1.386-1.201-2.101-2.956-2.147-5.265h3.22z" fill="#fff"/></svg>