<svg width="214" height="88" viewBox="0 0 214 88" fill="none" xmlns="http://www.w3.org/2000/svg"><path opacity=".5" d="M5.015 52.312c-.072-.048-.12-.12-.168-.192l-.24.168c-.432-.12-.408-.456-.408-.792.024-1.032-.216-2.04-.744-2.928-.36-.624-.816-1.176-1.248-1.776a9.302 9.302 0 00-.624-.744c-.6-.72-.624-1.488-.168-2.304.024-.024.072-.072.072-.096.144-.912.864-1.32 1.56-1.632 1.032-.456 2.136-.792 3.192-1.176.048-.024.12 0 .24 0-.504.528-1.176.696-1.68 1.128.576-.192 1.176-.384 1.752-.6.096-.024.144-.096.24-.12.96-.192 1.368-.936 1.704-1.752l.264-.288c-.024-.024-.048-.024-.048-.048-.072.024-.144.072-.216.096.144-.336.264-.696.432-1.008a876.074 876.074 0 013.552-6.552c.12-.216.264-.384.432-.648.144.216.264.36.384.552.12-.12.24-.264.36-.408.384.12.696.36.672.792a2.39 2.39 0 01-.288.912c-.456.792-1.008 1.56-1.44 2.352-.744 1.344-1.416 2.736-2.136 4.104-.096.192-.168.408-.288.648.408.048.768.096 1.128.168 1.104.144 1.824.84 2.448 1.704a.57.57 0 01.072.288c0 .12-.048.24-.048.36s.048.216.096.336c-.264.264-.528.336-.816.072-.12-.096-.216-.144-.384-.096-.12.024-.312-.144-.408-.288-.24-.384-.576-.504-1.008-.456-.696.048-1.416.12-2.184.192a157.123 157.123 0 00-1.296 3.36c-.696 1.944-1.368 3.888-1.704 5.904a2.612 2.612 0 01-.168.576c-.192.456-.504.528-.888.192zm.168-4.464L6.767 43c-1.608.264-3.36 1.128-3.792 1.872.72.984 1.464 1.968 2.208 2.976zm-3.168-2.52c.072-.24.168-.504-.096-.768-.312.312-.072.528.096.768zm15.54-7.632c-.503 1.296-.983 2.616-1.487 3.912-.024.12-.048.216-.12.456.936-.624 1.536-1.536 2.592-1.704-.096.12-.216.192-.432.408l1.416-.24c.336-.048.504 0 .72.288.384.576.576 1.224.456 1.92-.096.696-.24 1.368-.408 2.064-.528 1.896-1.032 3.816-1.56 5.712-.24.864-.528 1.728-.792 2.592-.096.264-.192.504-.336.84-.096-.216-.216-.336-.36-.552-.096.24-.192.408-.312.576-.024.024-.072 0-.096 0 0-.096-.024-.192 0-.264.12-.264.216-.528.408-.768.384-.552.504-1.224.72-1.848.264-.768.552-1.536.792-2.328.12-.456.408-.888.384-1.416-.024-.36.216-.672.312-1.008.312-.96.648-1.944.648-2.952.024-.48-.024-.984-.048-1.464-.264.192-.192.456-.24.72-.24 1.368-.648 2.688-1.056 4.008-.552 1.752-1.08 3.504-1.632 5.256-.048.24-.168.456-.288.816 0-.312 0-.504.024-.84-.24.504-.456.936-.696 1.464-.024-.216-.048-.312-.048-.408.288-.792.552-1.608.792-2.424l.432-1.488c.336-1.176.72-2.352 1.032-3.504.24-.864.36-1.776.528-2.616.072-.384.072-.768-.12-1.104-.408.024-.672.312-.936.552-.864.864-1.536 1.824-2.184 2.856-.84 1.344-1.632 2.736-2.472 4.08l-.384.6c-.048-.024-.096-.072-.192-.12-.144.288-.288.576-.432.84-.456-.168-.984-.168-1.152-.888.48-1.272 1.008-2.616 1.536-3.936.816-1.992 1.68-3.984 2.448-6 1.176-2.952 2.28-5.88 3.456-8.832.504-1.32 1.08-2.616 1.608-3.912.072-.216.216-.36.408-.504-.12.336-.24.624-.336.96l.216.36c.168-.456.336-.84.528-1.296.192.264.24.456.072.696-.192.288-.384.6-.576.936-.072.12-.12.264-.216.552.48-.384.432-1.056 1.032-1.128.264.12.24.312.144.552-.216.6-.408 1.224-.648 1.848a223.75 223.75 0 01-1.704 4.248c-.144.408-.384.768-.576 1.176-.288.744-.552 1.488-.864 2.256zm2.4 3.672c-.167.216-.023.384.097.504.192-.216.168-.336-.096-.504zm5.127 9.216c-.6 0-1.128-.264-1.68-.456.048-.072.096-.12.144-.216-.48-.336-.744-.888-1.344-1.08-.144-.048-.24-.24-.36-.36a10.502 10.502 0 01-.48-.6c-.072-.096-.096-.216-.12-.312-.024-.216-.024-.408-.048-.624-.456-.024-.984.36-1.392-.216.024-.168.024-.384.048-.624.168-.12.336-.24.504-.384l-.024.024c.504.024 1.032.048 1.488-.24.144-.072.312-.144.408-.264a7.35 7.35 0 011.56-1.296c.504-.36.984-.744 1.344-1.248.144-.216.312-.384.504-.528a19.084 19.084 0 012.784-1.776.954.954 0 011.008 0c.216.12.432.216.624.312-.096.072-.336-.144-.312.264l.312-.264c.696.36.84.816.528 1.512-.192.432-.48.768-.816 1.08-.936.864-2.016 1.536-3.12 2.184-1.08.624-2.256 1.008-3.36 1.488-.12.048-.264.096-.36.144.024 1.272.744 1.848 2.568 1.992-.072-.072-.096-.144-.168-.216.504-.096.984-.144 1.44-.288.456-.12.912-.336 1.416-.504.192.12.432.288.672.48.456.36.456.96-.024 1.224a5.537 5.537 0 01-2.88.792h-.864zm-.576-5.736c.912-.336 1.968-1.008 2.4-1.464l-.072-.288a10.76 10.76 0 00-2.328 1.752zm-2.136 2.808c.024-.192.048-.312.072-.432-.216.096-.144.24-.072.432z" fill="#898989" fill-opacity=".65"/><path d="M81.229 17.4l-3.84 2.96c-3.36-6.16-6.56-7.76-10.16-7.76-4.96 0-10 3.52-10 10.16 0 8.48 14.72 17.36 14.72 28.8 0 9.76-10.32 16.16-21.2 16.16-8.32 0-14.4-3.84-14.4-10.88 0-4.96 2.32-9.76 8.96-14.48l3.04 3.68c-4.88 2.56-9.28 6-9.28 11.68 0 4 3.44 7.92 11.92 7.92 7.76 0 15.76-4.32 15.76-12.96 0-8.48-14.08-18.16-14.08-28.32 0-10 8.8-13.36 16-13.36 6.72 0 10.16 3.28 12.56 6.4zm16.554 5.44l-3.12 7.36h11.12l-.8 1.6h-10.96l-12.08 28.56c-.16.48-.48 1.28-.48 1.76 0 .64.4 1.12 1.12 1.12 1.12 0 2.8-1.44 3.92-2.88l7.12-8.8 1.04.8-8.32 10.16c-2.48 3.12-4.8 4.48-6.8 4.48-1.6 0-3.28-.88-3.28-2.72 0-1.28.56-2.64 1.68-5.2l7.36-17.6c-1.68 2.56-4.32 6.32-9.44 12.56l-.96-.8c9.68-11.92 11.84-16.48 14.32-21.44h-9.52l.72-1.6h9.6l3.04-7.36h4.72zm.704 42.56c3.68 0 8.72-2.88 17.12-13.36l1.04.72C105.767 66.6 100.407 67 97.847 67c-2.48 0-6.64-1.2-6.64-6.48 0-11.68 12.56-21.6 18.32-21.6 2.72 0 3.92 1.84 3.92 4.4 0 6.96-10 13.12-16.64 13.2-.72 1.92-1.12 3.76-1.12 5.28 0 2.8 1.28 3.6 2.8 3.6zm9.76-24.88c-2.8 0-8.4 7.92-11.12 14.88 7.44-1.2 12.4-8.4 12.4-13.12 0-1.36-.56-1.76-1.28-1.76zm30.742-21.12l-17.28 40.96c-.16.48-.4 1.04-.4 1.44 0 .56.32.72.8.72.72 0 1.84-.72 2.96-2.16l7.2-8.8.96.8-8.64 10.64c-2.56 3.12-3.92 4-5.92 4-1.6 0-2.72-.96-2.72-2.4 0-1.28.64-2.96 1.76-5.52l7.36-17.6c-1.68 2.56-4.32 6.32-9.44 12.56l-.96-.8c10.88-13.36 12.24-17.52 15.2-23.28l4.48-10.56h4.64zm10.17 40.96c-.16.48-.4 1.04-.4 1.44 0 .56.32.72.8.72.72 0 1.84-.72 2.96-2.16l7.12-8.8 1.04.8-8.64 10.64c-2.56 3.12-4.24 4-6.24 4-1.6 0-2.72-.96-2.72-2.4 0-1.52.64-3.04 1.76-5.52 1.2-2.72 4.48-10.64 4.48-11.04 0-.24-.08-.4-.24-.4-.16 0-.48.16-.72.56-.96 1.2-8.32 12-11.2 14.88-2.48 2.48-4.32 4-6.24 4-1.28 0-3.2-.8-3.2-4.48 0-8 11.6-22.72 23.04-23.84v.72c-9.44 2.8-17.12 15.84-17.12 21.04 0 .96.32 1.68.8 1.68 1.68 0 8.8-9.12 13.28-15.2 4.64-6.24 5.68-7.92 7.76-7.92 1.04 0 1.44.64 1.44 1.44 0 .72-.24 1.52-.48 2.08-.64 1.36-6.4 15.84-7.28 17.76zm19.424 0c-.16.48-.4 1.04-.4 1.44 0 .56.32.72.8.72.72 0 1.84-.72 2.96-2.16l7.2-8.8.96.8-8.64 10.64c-2.56 3.12-4.08 4-6.08 4-1.6 0-2.641-.96-2.641-2.4 0-1.28.641-2.96 1.761-5.52l5.44-13.04c.56-1.2 1.12-2.88 1.12-3.36 0-.32-.24-.4-.48-.4-.64 0-1.44-.08-2.241-.24-1.759 2.56-4.479 6.16-9.12 12l-.96-.8c3.92-4.96 6.721-8.64 8.801-11.6-1.2-.48-2.08-1.36-2.08-2.88 0-1.2 1.36-4.56 3.92-4.56 1.04 0 2.16.56 2.16 1.84 0 .88-.48 2.32-2.16 4.24.8.32 1.44.32 2.24.32.96 0 1.76-.08 2.479-.08 1.441 0 2.001.88 2.001 1.76 0 1.04-.56 2.64-.96 3.68l-6.08 14.4zm41.289-8.4l.96.8c-5.12 6.48-9.36 10.32-14.48 14.64l-7.92 18.24-5.84 1.6s16.64-36.96 17.36-38.88c.16-.24.24-.72-.16-.72-.24 0-.48.16-.72.56-6.56 10.08-9.28 18.8-15.04 18.8-1.76 0-3.12-1.28-3.12-3.6 0-1.92.8-4.08 1.12-4.72l5.84-14.08c.08-.16.08-.32.08-.4 0-.32-.24-.48-.4-.48-.32 0-.48.16-.72.48l-7.76 9.52-.96-.72 8.8-10.88c1.36-1.68 2.8-3.2 4.4-3.2 1.52 0 2.16 1.04 2.16 2s-.4 2.24-.96 3.6l-5.84 13.92c-.56 1.28-.96 2.72-.96 3.6 0 1.2.72 1.36 1.44 1.36 2.32 0 7.28-10.88 11.28-17.2 3.68-5.84 4.48-7.44 7.44-7.44 1.04 0 1.76.64 1.76 1.52 0 .64-.16 1.44-.4 2l-9.68 22.4c3.44-2.96 7.6-6.96 12.32-12.72z" fill="#F06B9D"/></svg>