<svg width="170" height="44" viewBox="0 0 170 44" fill="none" xmlns="http://www.w3.org/2000/svg"><path d="M5.42 26.36c.054.96.12 1.707.2 2.24.08.507.227 1.013.44 1.52.4.987 1.067 1.773 2 2.36.934.56 2.04.84 3.32.84.854 0 1.667-.133 2.44-.4.8-.293 1.467-.707 2-1.24.88-.8 1.32-1.92 1.32-3.36 0-1.52-.56-2.8-1.68-3.84-.213-.187-.426-.36-.64-.52a4.074 4.074 0 00-.76-.44c-.266-.16-.6-.32-1-.48-.373-.187-.84-.387-1.4-.6L9.1 21.4a38.166 38.166 0 01-1.76-.72c-.48-.213-.906-.413-1.28-.6a74.657 74.657 0 01-.96-.6 7.056 7.056 0 01-.84-.72c-1.386-1.307-2.08-2.867-2.08-4.68 0-1.12.214-2.12.64-3A6.116 6.116 0 014.66 8.8c.8-.64 1.76-1.133 2.88-1.48 1.12-.347 2.374-.52 3.76-.52 2.854 0 5.04.653 6.56 1.96 1.547 1.28 2.347 3.173 2.4 5.68h-3.72c-.053-.907-.133-1.6-.24-2.08a7.03 7.03 0 00-.52-1.48c-.4-.88-1.04-1.573-1.92-2.08-.853-.507-1.826-.76-2.92-.76-.773 0-1.48.12-2.12.36-.613.24-1.16.573-1.64 1-.453.4-.813.893-1.08 1.48a5.023 5.023 0 00-.36 1.92c0 1.173.36 2.147 1.08 2.92.747.747 2.014 1.48 3.8 2.2l2.88 1.12c.587.24 1.107.467 1.56.68.454.187.854.373 1.2.56.347.16.654.333.92.52.294.187.574.387.84.6a6.643 6.643 0 011.92 2.48c.454.933.68 1.96.68 3.08 0 2.4-.84 4.267-2.52 5.6-1.653 1.307-3.973 1.96-6.96 1.96-3.04 0-5.36-.693-6.96-2.08-1.6-1.387-2.426-3.413-2.48-6.08h3.72zM46.934 7.32v1.36h-9.76V34h-3.72V8.68h-9.8V7.32h23.28zm21.724 1.36h-12.6V19.6h11.24v1.36h-11.24v11.68h13.24V34h-16.96V7.32h16.32v1.36zM92.128 34h-15.96V7.32h3.72V32.6h12.24V34zm19.989-10.32l-4.96-12.52-4.76 12.52h9.72zm8.24 10.32h-4.16l-3.56-8.96h-10.76l-3.4 8.96h-2.76l11.68-26.96h1.8L120.357 34zm12.736-13.68c2 0 3.534-.507 4.6-1.52 1.067-1.04 1.6-2.52 1.6-4.44 0-.987-.173-1.88-.52-2.68-.32-.827-.773-1.467-1.36-1.92a4.957 4.957 0 00-1.88-.92c-.72-.187-1.64-.28-2.76-.28h-3.4v11.76h3.72zm.28-13c1.814 0 3.28.133 4.4.4 1.147.267 2.147.707 3 1.32 1.68 1.227 2.52 2.947 2.52 5.16 0 3.787-2.373 6-7.12 6.64v.08c1.014.053 1.867.187 2.56.4.72.187 1.32.493 1.8.92.507.427.907.987 1.2 1.68.32.693.6 1.56.84 2.6l2 7.48h-4.04l-1.56-6.56a33.63 33.63 0 00-.52-2 9.673 9.673 0 00-.48-1.36c-.133-.373-.28-.667-.44-.88-.16-.24-.346-.44-.56-.6-.453-.373-1.04-.627-1.76-.76-.72-.16-1.773-.24-3.16-.24h-2.68V34h-3.72V7.32h7.72zM160.513 34h-3.72V23.08l-9.36-15.76h4.36l7.96 13.64 7.36-13.64h2.84l-9.44 15.28V34z" fill="#6B7280"/><path d="M5.42 26.36c.054.96.12 1.707.2 2.24.08.507.227 1.013.44 1.52.4.987 1.067 1.773 2 2.36.934.56 2.04.84 3.32.84.854 0 1.667-.133 2.44-.4.8-.293 1.467-.707 2-1.24.88-.8 1.32-1.92 1.32-3.36 0-1.52-.56-2.8-1.68-3.84-.213-.187-.426-.36-.64-.52a4.074 4.074 0 00-.76-.44c-.266-.16-.6-.32-1-.48-.373-.187-.84-.387-1.4-.6L9.1 21.4a38.166 38.166 0 01-1.76-.72c-.48-.213-.906-.413-1.28-.6a74.657 74.657 0 01-.96-.6 7.056 7.056 0 01-.84-.72c-1.386-1.307-2.08-2.867-2.08-4.68 0-1.12.214-2.12.64-3A6.116 6.116 0 014.66 8.8c.8-.64 1.76-1.133 2.88-1.48 1.12-.347 2.374-.52 3.76-.52 2.854 0 5.04.653 6.56 1.96 1.547 1.28 2.347 3.173 2.4 5.68h-3.72c-.053-.907-.133-1.6-.24-2.08a7.03 7.03 0 00-.52-1.48c-.4-.88-1.04-1.573-1.92-2.08-.853-.507-1.826-.76-2.92-.76-.773 0-1.48.12-2.12.36-.613.24-1.16.573-1.64 1-.453.4-.813.893-1.08 1.48a5.023 5.023 0 00-.36 1.92c0 1.173.36 2.147 1.08 2.92.747.747 2.014 1.48 3.8 2.2l2.88 1.12c.587.24 1.107.467 1.56.68.454.187.854.373 1.2.56.347.16.654.333.92.52.294.187.574.387.84.6a6.643 6.643 0 011.92 2.48c.454.933.68 1.96.68 3.08 0 2.4-.84 4.267-2.52 5.6-1.653 1.307-3.973 1.96-6.96 1.96-3.04 0-5.36-.693-6.96-2.08-1.6-1.387-2.426-3.413-2.48-6.08h3.72zM46.934 7.32v1.36h-9.76V34h-3.72V8.68h-9.8V7.32h23.28zm21.724 1.36h-12.6V19.6h11.24v1.36h-11.24v11.68h13.24V34h-16.96V7.32h16.32v1.36zM92.128 34h-15.96V7.32h3.72V32.6h12.24V34zm19.989-10.32l-4.96-12.52-4.76 12.52h9.72zm8.24 10.32h-4.16l-3.56-8.96h-10.76l-3.4 8.96h-2.76l11.68-26.96h1.8L120.357 34zm12.736-13.68c2 0 3.534-.507 4.6-1.52 1.067-1.04 1.6-2.52 1.6-4.44 0-.987-.173-1.88-.52-2.68-.32-.827-.773-1.467-1.36-1.92a4.957 4.957 0 00-1.88-.92c-.72-.187-1.64-.28-2.76-.28h-3.4v11.76h3.72zm.28-13c1.814 0 3.28.133 4.4.4 1.147.267 2.147.707 3 1.32 1.68 1.227 2.52 2.947 2.52 5.16 0 3.787-2.373 6-7.12 6.64v.08c1.014.053 1.867.187 2.56.4.72.187 1.32.493 1.8.92.507.427.907.987 1.2 1.68.32.693.6 1.56.84 2.6l2 7.48h-4.04l-1.56-6.56a33.63 33.63 0 00-.52-2 9.673 9.673 0 00-.48-1.36c-.133-.373-.28-.667-.44-.88-.16-.24-.346-.44-.56-.6-.453-.373-1.04-.627-1.76-.76-.72-.16-1.773-.24-3.16-.24h-2.68V34h-3.72V7.32h7.72zM160.513 34h-3.72V23.08l-9.36-15.76h4.36l7.96 13.64 7.36-13.64h2.84l-9.44 15.28V34z" fill="#000" fill-opacity=".8"/></svg>