<svg width="192" height="24" viewBox="0 0 192 24" fill="none" xmlns="http://www.w3.org/2000/svg"><path d="M0 4.557C0 2.04 2.053 0 4.586 0H24v4.557H4.586v5.165H24v9.721h-4.586v-5.165H0V4.557z" fill="#02D5A3"/><path d="M19.414 19.443V24H0v-4.557h19.414z" fill="#02D5A3"/><path d="M52 0H28v4.8h10V24h5V4.8h9V0zm9 0c-2.761 0-5 2.193-5 4.898v14.194h5v-4.888h19V9.306H61V4.898h19V0H61zm0 19.102h19V24H61v-4.898zM88.828 24v-.003C86.146 23.908 84 21.751 84 19.102V0h5v19.102h19V24H88.828zM136 4.948C136 2.215 133.761 0 131 0h-14v4.948h14v4.454h-14v-4.18h-5V24h5v-9.65h14V24h5V4.948zm8.83.048V0h12.162C160.863 0 164 3.246 164 7.249s-3.137 7.249-7.008 7.249h-6.76V9.502h6.759c1.203 0 2.179-1.009 2.179-2.253 0-1.244-.976-2.253-2.179-2.253H144.83zm0 0V24H140V4.996h4.83zm11.697 18.894l-6.277-9.39h5.486l6.38 9.39-5.589-.001zm16.301-10.4H187v5.514h-14v-2.498h-5v2.498A5.002 5.002 0 00172.828 24H187v-4.981h5V0h-5v8.493h-14V0h-5v8.493a5.002 5.002 0 004.828 4.997z" fill="#121212"/></svg>