<svg width="154" height="44" viewBox="0 0 154 44" fill="none" xmlns="http://www.w3.org/2000/svg"><path d="M11.798 28.8c3.64 0 5.6-1.04 5.6-2.92 0-1.6-1.76-2.28-5.76-2.28-6.32 0-9.04-1.68-9.04-5.72 0-4.08 3.2-6.28 9.2-6.28 5.52 0 9.2 2.56 9.2 6.4h-4c0-1.68-2.08-2.8-5.2-2.8-3.4 0-5.2.92-5.2 2.68 0 1.52 1.6 2.12 5.4 2.12 6.6 0 9.4 1.8 9.4 5.88 0 4.24-3.36 6.52-9.6 6.52-5.76 0-9.6-2.56-9.6-6.4h4c0 1.68 2.24 2.8 5.6 2.8zM22.62 15.6V12h20v3.6h-8V32h-4V15.6h-8zm42.603 0h-15.6v4.6h11.6v3.6h-11.6v4.6h15.6V32h-19.6V12h19.6v3.6zm3.8 16.4V12h4v16.4h12V32h-16zm21.426 0h-4.24l8.2-20h6l8.2 20h-4.32l-1.64-4h-10.56l-1.64 4zm3.12-7.6h7.6l-3.6-8.8h-.4l-3.6 8.8zm17.645 7.6V12h14.4c3.6 0 6 2.4 6 6 0 3.2-2.08 5.44-5.24 5.76.28.32.56.68.72.96l4.52 7.28h-4.52l-5.08-8.2h-6.8V32h-4zm4-11.8h10.4c1.2 0 2-.8 2-2v-.6c0-1.2-.8-2-2-2h-10.4v4.6zM140.619 32v-7l-8.4-13h4.6l3.92 6c1.28 2 1.84 3.6 1.84 3.6h.08s.56-1.6 1.84-3.6l3.88-6h4.64l-8.4 13v7h-4z" fill="#6B7280"/><path d="M11.798 28.8c3.64 0 5.6-1.04 5.6-2.92 0-1.6-1.76-2.28-5.76-2.28-6.32 0-9.04-1.68-9.04-5.72 0-4.08 3.2-6.28 9.2-6.28 5.52 0 9.2 2.56 9.2 6.4h-4c0-1.68-2.08-2.8-5.2-2.8-3.4 0-5.2.92-5.2 2.68 0 1.52 1.6 2.12 5.4 2.12 6.6 0 9.4 1.8 9.4 5.88 0 4.24-3.36 6.52-9.6 6.52-5.76 0-9.6-2.56-9.6-6.4h4c0 1.68 2.24 2.8 5.6 2.8zM22.62 15.6V12h20v3.6h-8V32h-4V15.6h-8zm42.603 0h-15.6v4.6h11.6v3.6h-11.6v4.6h15.6V32h-19.6V12h19.6v3.6zm3.8 16.4V12h4v16.4h12V32h-16zm21.426 0h-4.24l8.2-20h6l8.2 20h-4.32l-1.64-4h-10.56l-1.64 4zm3.12-7.6h7.6l-3.6-8.8h-.4l-3.6 8.8zm17.645 7.6V12h14.4c3.6 0 6 2.4 6 6 0 3.2-2.08 5.44-5.24 5.76.28.32.56.68.72.96l4.52 7.28h-4.52l-5.08-8.2h-6.8V32h-4zm4-11.8h10.4c1.2 0 2-.8 2-2v-.6c0-1.2-.8-2-2-2h-10.4v4.6zM140.619 32v-7l-8.4-13h4.6l3.92 6c1.28 2 1.84 3.6 1.84 3.6h.08s.56-1.6 1.84-3.6l3.88-6h4.64l-8.4 13v7h-4z" fill="#000" fill-opacity=".8"/></svg>