<svg width="185" height="58" viewBox="0 0 185 58" fill="none" xmlns="http://www.w3.org/2000/svg"><path d="M31.353 7.502c.096.545.16.93.193 1.154.064.192.096.465.096.817 0 1.058-.24 2.052-.722 2.982-.448.897-1.074 1.538-1.875 1.923a9.13 9.13 0 00-2.356-2.212 12.57 12.57 0 00-3.078-1.539 17.274 17.274 0 00-3.414-.913 21.62 21.62 0 00-3.462-.289c-1.122 0-2.18.096-3.174.289-.962.16-1.828.4-2.597.721-.737.289-1.33.657-1.78 1.106-.416.449-.624.962-.624 1.539.096.705.529 1.427 1.298 2.164.77.705 1.715 1.41 2.837 2.116a55.18 55.18 0 003.703 2.02c1.378.673 2.725 1.314 4.04 1.923 1.634.77 3.045 1.49 4.231 2.164 1.186.641 2.164 1.362 2.933 2.164a7.571 7.571 0 011.732 2.645c.384.993.577 2.196.577 3.606 0 1.635-.273 3.174-.818 4.617A10.56 10.56 0 0126.69 40.2c-1.026 1.058-2.276 1.876-3.751 2.453-1.475.609-3.126.913-4.953.913-1.796 0-3.735-.272-5.819-.817A27.476 27.476 0 016.3 40.49c-1.795-.93-3.302-2.004-4.52-3.222C.593 36.018 0 34.703 0 33.325c0-.641.176-1.459.529-2.453.385-.994 1.058-2.035 2.02-3.125.096.961.609 2.1 1.538 3.414.962 1.314 2.389 2.532 4.28 3.654 1.763 1.026 3.575 1.78 5.434 2.26 1.892.45 3.655.674 5.29.674 1.795 0 3.254-.224 4.376-.673 1.122-.45 2.004-.978 2.645-1.587.64-.641 1.09-1.283 1.346-1.924.257-.64.4-1.154.433-1.539-.032-.64-.337-1.25-.914-1.827-.545-.609-1.298-1.186-2.26-1.731a30.331 30.331 0 00-3.27-1.731 154.815 154.815 0 00-3.895-1.731 94.057 94.057 0 01-5.242-2.5c-1.442-.802-2.644-1.604-3.606-2.405-.93-.834-1.62-1.7-2.068-2.597-.417-.898-.625-1.924-.625-3.078 0-1.795.545-3.494 1.635-5.097 1.09-1.603 2.66-2.821 4.713-3.655a13.771 13.771 0 013.27-.961 21.62 21.62 0 013.462-.289c2.116 0 4.183.289 6.203.866 2.02.577 4.04 1.314 6.06 2.212zm2.152 13.993c-.16-.192-.304-.593-.432-1.202-.129-.641-.193-1.186-.193-1.635.834.064 1.635.128 2.405.192.77.032 1.475.064 2.116.097a47.99 47.99 0 011.538-2.838 64.993 64.993 0 011.635-2.596 27.876 27.876 0 011.491-2.02c.481-.545.85-.898 1.106-1.058.32 0 .721.064 1.202.192.513.097 1.026.24 1.54.433.512.16.977.337 1.394.53.416.191.705.384.865.576a53.09 53.09 0 00-2.5 3.414 96.665 96.665 0 00-2.212 3.559 42.69 42.69 0 003.943-.192c.16.16.288.368.385.625.096.224.144.465.144.721-1.571.577-3.479.898-5.723.962a59.68 59.68 0 00-2.164 4.616 61.2 61.2 0 00-1.586 4.376 48.634 48.634 0 00-1.01 3.992c-.225 1.25-.337 2.372-.337 3.366 0 1.41.53 2.196 1.587 2.356a11.128 11.128 0 002.741-.721 9.094 9.094 0 002.308-1.347c.193.289.305.53.337.721-.193.289-.53.626-1.01 1.01-.449.385-.946.754-1.49 1.106-.546.385-1.075.706-1.588.962-.513.257-.897.4-1.154.433a7.22 7.22 0 01-2.404-.53 10.493 10.493 0 01-2.212-1.201 7.444 7.444 0 01-1.587-1.587c-.417-.61-.625-1.202-.625-1.78 0-.769.096-1.73.288-2.885.225-1.186.53-2.468.914-3.847a81.073 81.073 0 011.346-4.328 75.122 75.122 0 011.683-4.472h-2.74zm29.601-1.49c-.128 1.987-.48 3.702-1.057 5.145a11.316 11.316 0 01-2.5 3.75c-1.059 1.059-2.357 2.02-3.896 2.886-1.539.866-3.334 1.7-5.386 2.5 0 .193-.016.401-.048.626v.625c0 .417.032.85.096 1.298.064.449.177.866.337 1.25.16.385.384.706.673.962.289.225.657.337 1.106.337.866 0 1.715-.193 2.549-.577.833-.385 1.619-.85 2.356-1.395a19.713 19.713 0 002.116-1.827 85.005 85.005 0 001.78-1.827c.32.288.592.56.817.817-1.443 1.924-3.03 3.526-4.761 4.809-1.7 1.25-3.318 2.052-4.857 2.404-2.212-.256-3.943-1.058-5.193-2.404-1.219-1.379-1.828-3.03-1.828-4.953 0-1.315.177-2.645.53-3.991a20.969 20.969 0 011.538-3.944 24.656 24.656 0 012.308-3.606 20.62 20.62 0 012.837-2.934c1.026-.833 2.068-1.49 3.126-1.971 1.09-.481 2.164-.721 3.222-.721 1.475.192 2.853 1.105 4.136 2.74zm-3.318 1.586c-.865.129-1.763.481-2.692 1.058-.93.577-1.812 1.347-2.645 2.308-.802.962-1.54 2.084-2.212 3.367a19.394 19.394 0 00-1.587 4.135c2.565-1.282 4.696-2.853 6.395-4.712 1.7-1.892 2.613-3.944 2.742-6.156zm3.814 15.244c0-1.41.336-3.382 1.01-5.915.673-2.564 1.619-5.546 2.837-8.944 1.987-5.418 3.847-9.922 5.578-13.513C74.79 4.841 76.505 2.02 78.172 0c.385.064.85.224 1.395.48.577.257 1.138.546 1.683.866.545.289 1.026.594 1.442.914.45.32.738.577.866.77a59.236 59.236 0 00-6.588 9.52c-1.891 3.4-3.623 7.294-5.193 11.686-1.347 3.783-2.373 7.197-3.078 10.243-.705 3.013-1.058 5.53-1.058 7.55v1.01c0 .128.016.256.048.384a3.765 3.765 0 01-1.154-.336c-.32-.16-.529-.353-.625-.577-.064-.16-.24-.401-.53-.722a6.354 6.354 0 00-.768-.673c-.289-.192-.53-.69-.722-1.49-.192-.834-.288-1.764-.288-2.79zm26.132-16.35c.32 0 .689.064 1.106.193.448.096.85.24 1.202.432.352.16.641.337.865.53.257.192.385.368.385.529a65.652 65.652 0 00-1.78 4.087 48.141 48.141 0 00-1.394 3.895 38.23 38.23 0 00-.913 3.51c-.193 1.09-.289 2.036-.289 2.838 0 .897.096 1.65.289 2.26.192.577.513.993.961 1.25-.384.257-.881.465-1.49.625-.61.16-1.154.24-1.635.24-1.731 0-2.597-1.186-2.597-3.558 0-1.827.61-4.328 1.827-7.502a30.512 30.512 0 01-2.212 4.184 30.5 30.5 0 01-2.548 3.414c-.866.994-1.748 1.812-2.645 2.453-.866.609-1.667.977-2.405 1.106-1.186-.064-2.147-.625-2.885-1.683-.737-1.09-1.106-2.469-1.106-4.136 0-1.795.385-3.687 1.154-5.674a26.041 26.041 0 012.934-5.53c1.218-1.7 2.532-3.11 3.943-4.232 1.41-1.154 2.773-1.763 4.087-1.827.32.096.674.288 1.058.577.417.288.802.625 1.154 1.01.385.384.706.785.962 1.202.257.384.4.721.433 1.01-1.282.192-2.613.817-3.991 1.875-1.347 1.058-2.581 2.34-3.703 3.847a22.476 22.476 0 00-2.693 4.76c-.705 1.7-1.058 3.287-1.058 4.761 0 .61.224.994.673 1.155.93-.193 2.004-.978 3.222-2.357 1.218-1.41 2.693-3.574 4.424-6.492.32-.577.673-1.218 1.058-1.923a66.49 66.49 0 001.25-2.212c.417-.77.818-1.539 1.203-2.308.416-.802.801-1.571 1.154-2.309zm3.16 18.466c.16-.93.433-2.148.818-3.655.416-1.538.897-3.157 1.442-4.856a164.203 164.203 0 011.732-5.194 86.595 86.595 0 011.779-4.664c.417-.994.785-1.764 1.106-2.309a6.444 6.444 0 011.058-1.442 7.98 7.98 0 011.394.336c.481.16.946.353 1.395.577a8.52 8.52 0 011.202.722c.353.224.625.448.818.673a18.5 18.5 0 00-2.309 3.51c-.641 1.315-1.298 2.998-1.971 5.05 1.731-1.54 3.254-3.014 4.568-4.425a34.549 34.549 0 003.751-4.712c.192-.16.529-.24 1.01-.24.449 0 .881.08 1.298.24.417.128.705.32.866.577-.577 1.539-.866 3.062-.866 4.568 0 1.41.209 2.469.625 3.174-.032.192-.256.561-.673 1.106a11.798 11.798 0 01-1.298 1.539 7.867 7.867 0 01-2.309-1.828 8.141 8.141 0 01-1.49-2.596c-1.507 1.058-2.789 2.1-3.847 3.125a16.343 16.343 0 00-2.741 3.367c-.738 1.218-1.379 2.628-1.924 4.231-.513 1.603-1.01 3.51-1.49 5.723-.289-.032-.642-.144-1.058-.337a8.68 8.68 0 01-1.203-.625 9.246 9.246 0 01-1.058-.817c-.32-.289-.529-.561-.625-.818zm36.947-6.491a111.868 111.868 0 01-2.212 6.395 51.235 51.235 0 01-2.356 5.29 35.168 35.168 0 01-2.693 4.472 33.695 33.695 0 01-3.174 3.895c-1.475 1.539-2.997 2.709-4.568 3.51-1.571.834-3.142 1.25-4.713 1.25a10.27 10.27 0 01-2.404-.288c-.77-.16-1.491-.4-2.164-.721a7.19 7.19 0 01-1.828-1.058c-.545-.385-.929-.802-1.154-1.25 0-.385.225-.722.674-1.01.384.352.705.625.961.817.257.193.513.353.77.481.224.128.481.208.769.24.257.033.561.049.914.049 1.827 0 3.606-.545 5.338-1.635 1.763-1.058 3.414-2.581 4.953-4.569 1.57-1.955 2.997-4.344 4.279-7.165 1.283-2.789 2.373-5.915 3.27-9.377a625.71 625.71 0 01-1.538 2.356c-.61.93-1.283 1.86-2.02 2.79a24.196 24.196 0 01-2.308 2.452c-.77.737-1.523 1.234-2.26 1.49a6.465 6.465 0 01-1.635-.336 6.392 6.392 0 01-1.587-.721 6.336 6.336 0 01-1.299-1.154 3.5 3.5 0 01-.769-1.54c0-.929.032-1.666.096-2.211a15.41 15.41 0 01.337-1.876c.288-1.218.705-2.596 1.25-4.135a46.84 46.84 0 011.972-4.52 35.079 35.079 0 012.5-4.184c.93-1.314 1.892-2.34 2.885-3.078.257 0 .577.032.962.096.385.032.786.113 1.202.24a7.85 7.85 0 011.203.482c.384.16.721.384 1.009.673-.352.32-1.122 1.395-2.308 3.222-1.186 1.827-2.5 4.456-3.943 7.886-.16.353-.353.866-.577 1.539a80.716 80.716 0 00-.673 2.116 67.631 67.631 0 00-.529 2.164c-.161.705-.241 1.266-.241 1.683 0 .256.032.449.096.577.097.128.177.224.241.289.577-.097 1.346-.561 2.308-1.395.962-.866 2.052-2.196 3.27-3.991a58.495 58.495 0 002.116-3.415 183.655 183.655 0 001.875-3.462c.641-1.154 1.299-2.34 1.972-3.558a120.204 120.204 0 012.164-3.751c.417 0 .865.048 1.346.144.481.096.946.224 1.395.385.449.128.833.288 1.154.48.353.16.609.337.769.53a201.84 201.84 0 00-2.789 6.203 68.449 68.449 0 00-2.308 6.203zm5.11 9.28c-.513-.064-1.058-.288-1.635-.673-.545-.353-.898-.753-1.058-1.202 0-.385.048-.882.144-1.491.128-.61.273-1.218.433-1.827.16-.641.321-1.235.481-1.78.16-.577.272-1.01.336-1.298.385 0 .866.096 1.443.289a9.154 9.154 0 011.827.817c.642.32 1.235.705 1.78 1.154.577.417 1.009.85 1.298 1.299a8.973 8.973 0 01-1.106 1.827 9.13 9.13 0 01-1.443 1.49c-.481.45-.945.786-1.394 1.01-.449.257-.818.385-1.106.385z" fill="#fff"/><rect x="153.006" width="32" height="32" rx="16" transform="rotate(9 153.006 0)" fill="#F15A24"/><path d="M160.756 21.68l1.051-6.638-1.869.372.229-1.446 2.187-.54 1.351.214-1.314 8.297-1.635-.26zm2.852-.4c.086-.545.514-.866 1.071-.777.557.088.864.525.778 1.07-.087.546-.514.867-1.071.779-.557-.089-.864-.526-.778-1.071zm5.543 1.9c-1.908-.303-2.94-1.693-2.671-3.388l.45-2.845c.269-1.695 1.679-2.698 3.587-2.396 1.909.302 2.94 1.692 2.671 3.387l-.45 2.845c-.269 1.695-1.679 2.698-3.587 2.396zm1.948-2.633l.458-2.891c.159-1.008-.327-1.62-1.252-1.766-.924-.146-1.576.285-1.735 1.293l-.458 2.891c-.16 1.008.327 1.62 1.251 1.766.924.146 1.576-.285 1.736-1.293z" fill="#fff"/></svg>