<svg width="210" height="86" viewBox="0 0 210 86" fill="none" xmlns="http://www.w3.org/2000/svg"><path d="M47.216 11.472c.144.816.24 1.392.288 1.728.096.288.144.696.144 1.224 0 1.584-.36 3.072-1.08 4.464-.672 1.344-1.608 2.304-2.808 2.88a13.667 13.667 0 00-3.528-3.312 18.82 18.82 0 00-4.608-2.304 25.867 25.867 0 00-5.112-1.368 32.37 32.37 0 00-5.184-.432c-1.68 0-3.264.144-4.752.432-1.44.24-2.736.6-3.888 1.08-1.104.432-1.992.984-2.664 1.656-.624.672-.936 1.44-.936 2.304.144 1.056.792 2.136 1.944 3.24 1.152 1.056 2.568 2.112 4.248 3.168a82.551 82.551 0 005.544 3.024 329.396 329.396 0 006.048 2.88c2.448 1.152 4.56 2.232 6.336 3.24 1.776.96 3.24 2.04 4.392 3.24a11.337 11.337 0 012.592 3.96c.576 1.488.864 3.288.864 5.4 0 2.448-.408 4.752-1.224 6.912a15.808 15.808 0 01-3.6 5.544c-1.536 1.584-3.408 2.808-5.616 3.672-2.208.912-4.68 1.368-7.416 1.368-2.688 0-5.592-.408-8.712-1.224a41.136 41.136 0 01-8.784-3.384c-2.688-1.392-4.944-3-6.768-4.824C1.16 54.168.272 52.2.272 50.136c0-.96.264-2.184.792-3.672.576-1.488 1.584-3.048 3.024-4.68.144 1.44.912 3.144 2.304 5.112 1.44 1.968 3.576 3.792 6.408 5.472 2.64 1.536 5.352 2.664 8.136 3.384 2.832.672 5.472 1.008 7.92 1.008 2.688 0 4.872-.336 6.552-1.008 1.68-.672 3-1.464 3.96-2.376.96-.96 1.632-1.92 2.016-2.88.384-.96.6-1.728.648-2.304-.048-.96-.504-1.872-1.368-2.736-.816-.912-1.944-1.776-3.384-2.592-1.392-.864-3.024-1.728-4.896-2.592a232.103 232.103 0 00-5.832-2.592c-3.024-1.344-5.64-2.592-7.848-3.744-2.16-1.2-3.96-2.4-5.4-3.6-1.392-1.248-2.424-2.544-3.096-3.888-.624-1.344-.936-2.88-.936-4.608 0-2.688.816-5.232 2.448-7.632 1.632-2.4 3.984-4.224 7.056-5.472a20.621 20.621 0 014.896-1.44 32.37 32.37 0 015.184-.432c3.168 0 6.264.432 9.288 1.296a69.026 69.026 0 019.072 3.312zm3.222 20.952c-.24-.288-.456-.888-.648-1.8-.191-.96-.288-1.776-.288-2.448 1.248.096 2.448.192 3.6.288 1.153.048 2.209.096 3.169.144a72.59 72.59 0 012.303-4.248 97.23 97.23 0 012.449-3.888c.816-1.2 1.56-2.208 2.231-3.024.72-.816 1.273-1.344 1.657-1.584.48 0 1.08.096 1.8.288.767.144 1.535.36 2.303.648.769.24 1.465.504 2.089.792.624.288 1.056.576 1.296.864a79.502 79.502 0 00-3.745 5.112 144.688 144.688 0 00-3.311 5.328 64 64 0 005.904-.288c.24.24.431.552.576.936.144.336.216.696.216 1.08-2.353.864-5.209 1.344-8.569 1.44a89.418 89.418 0 00-3.24 6.912 91.703 91.703 0 00-2.375 6.552 72.819 72.819 0 00-1.512 5.976c-.337 1.872-.505 3.552-.505 5.04 0 2.112.792 3.288 2.377 3.528a16.668 16.668 0 004.103-1.08 13.616 13.616 0 003.457-2.016c.287.432.456.792.503 1.08-.288.432-.791.936-1.512 1.512a20.717 20.717 0 01-2.232 1.656 18.468 18.468 0 01-2.376 1.44c-.767.384-1.343.6-1.727.648a10.81 10.81 0 01-3.6-.792 15.71 15.71 0 01-3.313-1.8c-.96-.72-1.752-1.512-2.376-2.376-.623-.912-.936-1.8-.936-2.664 0-1.152.144-2.592.432-4.32a69.881 69.881 0 011.369-5.76 121.49 121.49 0 012.016-6.48 112.518 112.518 0 012.52-6.696h-4.105zm44.321-2.232c-.192 2.976-.72 5.544-1.584 7.704a16.944 16.944 0 01-3.744 5.616c-1.584 1.584-3.528 3.024-5.832 4.32-2.304 1.296-4.992 2.544-8.064 3.744 0 .288-.024.6-.072.936v.936c0 .624.048 1.272.144 1.944.096.672.264 1.296.504 1.872a3.9 3.9 0 001.008 1.44c.432.336.984.504 1.656.504 1.296 0 2.568-.288 3.816-.864a20.069 20.069 0 003.528-2.088 29.507 29.507 0 003.168-2.736 127.43 127.43 0 002.664-2.736c.48.432.888.84 1.224 1.224-2.16 2.88-4.536 5.28-7.128 7.2-2.544 1.872-4.968 3.072-7.272 3.6-3.312-.384-5.904-1.584-7.776-3.6-1.824-2.064-2.736-4.536-2.736-7.416 0-1.968.264-3.96.792-5.976a31.396 31.396 0 012.304-5.904 36.905 36.905 0 013.456-5.4c1.344-1.68 2.76-3.144 4.248-4.392 1.536-1.248 3.096-2.232 4.68-2.952 1.632-.72 3.24-1.08 4.824-1.08 2.208.288 4.272 1.656 6.192 4.104zm-4.968 2.376c-1.296.192-2.64.72-4.032 1.584-1.392.864-2.712 2.016-3.96 3.456-1.2 1.44-2.304 3.12-3.312 5.04a29.038 29.038 0 00-2.376 6.192c3.84-1.92 7.032-4.272 9.576-7.056 2.544-2.832 3.912-5.904 4.104-9.216zM95.5 55.392c0-2.112.504-5.064 1.512-8.856 1.008-3.84 2.424-8.304 4.248-13.392 2.976-8.112 5.76-14.856 8.352-20.232 2.64-5.424 5.208-9.648 7.704-12.672.576.096 1.272.336 2.088.72a24.96 24.96 0 012.52 1.296 15.21 15.21 0 012.16 1.368c.672.48 1.104.864 1.296 1.152a88.682 88.682 0 00-9.864 14.256c-2.832 5.088-5.424 10.92-7.776 17.496-2.016 5.664-3.552 10.776-4.608 15.336-1.056 4.512-1.584 8.28-1.584 11.304v1.512c0 .192.024.384.072.576-.672-.096-1.248-.264-1.728-.504s-.792-.528-.936-.864c-.096-.24-.36-.6-.792-1.08a9.534 9.534 0 00-1.152-1.008c-.432-.288-.792-1.032-1.08-2.232-.288-1.248-.432-2.64-.432-4.176zm39.127-24.48c.48 0 1.032.096 1.656.288.672.144 1.272.36 1.8.648.528.24.96.504 1.296.792.384.288.576.552.576.792a98.251 98.251 0 00-2.664 6.12 72.078 72.078 0 00-2.088 5.832 57.167 57.167 0 00-1.368 5.256c-.288 1.632-.432 3.048-.432 4.248 0 1.344.144 2.472.432 3.384.288.864.768 1.488 1.44 1.872-.576.384-1.32.696-2.232.936-.912.24-1.728.36-2.448.36-2.592 0-3.888-1.776-3.888-5.328 0-2.736.912-6.48 2.736-11.232a45.694 45.694 0 01-3.312 6.264c-1.248 1.92-2.52 3.624-3.816 5.112-1.296 1.488-2.616 2.712-3.96 3.672-1.296.912-2.496 1.464-3.6 1.656-1.776-.096-3.216-.936-4.32-2.52-1.104-1.632-1.656-3.696-1.656-6.192 0-2.688.576-5.52 1.728-8.496a38.992 38.992 0 014.392-8.28c1.824-2.544 3.792-4.656 5.904-6.336 2.112-1.728 4.152-2.64 6.12-2.736.48.144 1.008.432 1.584.864.624.432 1.2.936 1.728 1.512a9.871 9.871 0 011.44 1.8c.384.576.6 1.08.648 1.512-1.92.288-3.912 1.224-5.976 2.808-2.016 1.584-3.864 3.504-5.544 5.76a33.652 33.652 0 00-4.032 7.128c-1.056 2.544-1.584 4.92-1.584 7.128 0 .912.336 1.488 1.008 1.728 1.392-.288 3-1.464 4.824-3.528 1.824-2.112 4.032-5.352 6.624-9.72a427.09 427.09 0 001.584-2.88c.624-1.056 1.248-2.16 1.872-3.312a118.894 118.894 0 001.8-3.456c.624-1.2 1.2-2.352 1.728-3.456zm4.732 27.648c.24-1.392.648-3.216 1.224-5.472a165.663 165.663 0 012.16-7.272c.816-2.592 1.68-5.184 2.592-7.776.912-2.592 1.8-4.92 2.664-6.984.624-1.488 1.176-2.64 1.656-3.456.48-.864 1.008-1.584 1.584-2.16.672.096 1.368.264 2.088.504s1.416.528 2.088.864a12.75 12.75 0 011.8 1.08c.528.336.936.672 1.224 1.008-1.296 1.536-2.448 3.288-3.456 5.256-.96 1.968-1.944 4.488-2.952 7.56 2.592-2.304 4.872-4.512 6.84-6.624a51.794 51.794 0 005.616-7.056c.288-.24.792-.36 1.512-.36.672 0 1.32.12 1.944.36.624.192 1.056.48 1.296.864-.864 2.304-1.296 4.584-1.296 6.84 0 2.112.312 3.696.936 4.752-.048.288-.384.84-1.008 1.656a17.647 17.647 0 01-1.944 2.304 11.77 11.77 0 01-3.456-2.736c-1.008-1.2-1.752-2.496-2.232-3.888-2.256 1.584-4.176 3.144-5.76 4.68a24.493 24.493 0 00-4.104 5.04c-1.104 1.824-2.064 3.936-2.88 6.336-.768 2.4-1.512 5.256-2.232 8.568-.432-.048-.96-.216-1.584-.504a12.99 12.99 0 01-1.8-.936 13.83 13.83 0 01-1.584-1.224c-.48-.432-.792-.84-.936-1.224zm55.319-9.72c-1.104 3.504-2.208 6.696-3.312 9.576-1.104 2.88-2.28 5.52-3.528 7.92-1.248 2.448-2.592 4.68-4.032 6.696a50.393 50.393 0 01-4.752 5.832c-2.208 2.304-4.488 4.056-6.84 5.256-2.352 1.248-4.704 1.872-7.056 1.872-1.2 0-2.4-.144-3.6-.432-1.152-.24-2.232-.6-3.24-1.08-1.056-.432-1.968-.96-2.736-1.584-.816-.576-1.392-1.2-1.728-1.872 0-.576.336-1.08 1.008-1.512.576.528 1.056.936 1.44 1.224.384.288.768.528 1.152.72.336.192.72.312 1.152.36.384.048.84.072 1.368.072 2.736 0 5.4-.816 7.992-2.448 2.64-1.584 5.112-3.864 7.416-6.84 2.352-2.928 4.488-6.504 6.408-10.728 1.92-4.176 3.552-8.856 4.896-14.04-.624.96-1.392 2.136-2.304 3.528a56.996 56.996 0 01-3.024 4.176 36.195 36.195 0 01-3.456 3.672c-1.152 1.104-2.28 1.848-3.384 2.232-.768-.048-1.584-.216-2.448-.504a9.569 9.569 0 01-2.376-1.08 9.473 9.473 0 01-1.944-1.728 5.232 5.232 0 01-1.152-2.304c0-1.392.048-2.496.144-3.312.096-.864.264-1.8.504-2.808.432-1.824 1.056-3.888 1.872-6.192a70.388 70.388 0 012.952-6.768 52.69 52.69 0 013.744-6.264c1.392-1.968 2.832-3.504 4.32-4.608.384 0 .864.048 1.44.144a8.54 8.54 0 011.8.36c.624.192 1.224.432 1.8.72.576.24 1.08.576 1.512 1.008-.528.48-1.68 2.088-3.456 4.824-1.776 2.736-3.744 6.672-5.904 11.808-.24.528-.528 1.296-.864 2.304a126.52 126.52 0 00-1.008 3.168 105.25 105.25 0 00-.792 3.24c-.24 1.056-.36 1.896-.36 2.52 0 .384.048.672.144.864.144.192.264.336.36.432.864-.144 2.016-.84 3.456-2.088 1.44-1.296 3.072-3.288 4.896-5.976a87.415 87.415 0 003.168-5.112c.96-1.728 1.896-3.456 2.808-5.184.96-1.728 1.944-3.504 2.952-5.328a182.51 182.51 0 013.24-5.616c.624 0 1.296.072 2.016.216.72.144 1.416.336 2.088.576.672.192 1.248.432 1.728.72.528.24.912.504 1.152.792a297.791 297.791 0 00-4.176 9.288 102.318 102.318 0 00-3.456 9.288zm7.651 13.896c-.768-.096-1.584-.432-2.448-1.008-.816-.528-1.344-1.128-1.584-1.8 0-.576.072-1.32.216-2.232.192-.912.408-1.824.648-2.736.24-.96.48-1.848.72-2.664.24-.864.408-1.512.504-1.944.576 0 1.296.144 2.16.432.912.288 1.824.696 2.736 1.224.96.48 1.848 1.056 2.664 1.728.864.624 1.512 1.272 1.944 1.944-.432.96-.984 1.872-1.656 2.736a13.668 13.668 0 01-2.16 2.232c-.72.672-1.416 1.176-2.088 1.512-.672.384-1.224.576-1.656.576z" fill="#121212"/></svg>