<svg width="268" height="220" viewBox="0 0 268 220" fill="none" xmlns="http://www.w3.org/2000/svg"><g clip-path="url(#clip0_3620_67322)"><path d="M199.969 91.262c-14.112 1.22-43.033 3.417-45.824 2.446-3.489-1.213-3.247-1.91-4.809-7.539-.593-2.135-.947-8.383-1.155-14.361-.259-7.408 5.162-13.75 12.532-14.535a254.47 254.47 0 016.138-.582m21.998-.045c-3.656-.335-6.454-.462-11.507-.46-2.493 0-5.282.127-8.122.325" stroke="#fff"/><path d="M154.33 90.369l-.34-2.031m1.694 2.032v-1.692m2.031 1.692l-.34-1.354" stroke="#fff" stroke-width=".5"/><path d="M161.775 89.353l14.892-1.015m-68.049-50.427c1.373-3.682 2.397-8.86 3.337-13.875a2.047 2.047 0 00-.989-2.143c-8.432-4.905-16.342-10.514-24.009-13.013-8.045-2.623-11.29.95-11.907 3.065-2.412 5.32-7.402 17.114-8.063 21.74-.827 5.782-1.329 6.324 1.38 8.835 2.073 1.922 16.681 6.447 29.69 10.815 1.06.357 2.223.023 2.853-.902 2.081-3.055 5.758-9.292 7.708-14.522z" stroke="#fff"/><path d="M69.718 32.492c-.79 2.708-1.422 8.259 2.37 8.8m36.215-14.554l.675-2.369m-1.693.678l.339-1.354m-1.692-.001l.338-1.354M73.441 42.647l.339-1.354m1.015 2.029l.338-1.353" stroke="#fff" stroke-width=".5"/><path d="M231.766 165.113l7.603-4.39m-6.928.328l4.806-5.697M63.603 2.68c.403-.771 1.644-2.106 3.387-1.269 1.744.837 1.537 2.81 1.216 3.691.504-.464 1.874-1.282 3.325-.839 1.45.444 1.171 2.318.85 3.2.735-.383 2.354-.775 2.954.718.6 1.493.382 2.7 0 2.987m148.712 167.54c.503-.464 1.345-1.069 2.795-.625 1.451.443 1.171 2.317.85 3.199.735-.383 2.355-.775 2.955.719.601 1.492.381 2.699 0 2.986" stroke="#fff"/><path d="M198 53.032c.805-1.471 2.793-4.295 4.3-3.823 1.506.472-2.239 2.745-4.3 3.823zm2.637 1.078c1.495-.76 4.729-1.969 5.707-.73.977 1.24-3.398 1.004-5.707.73z" fill="#fff"/><path d="M118.68 6.683l-2.428 1.197a.677.677 0 00-.308.907l1.197 2.428a.678.678 0 00.907.308l2.428-1.198a.678.678 0 00.308-.906l-1.198-2.429a.676.676 0 00-.906-.307zm40.613 135.385l-2.428 1.197a.678.678 0 00-.308.907l1.198 2.428a.677.677 0 00.906.308l2.428-1.198a.676.676 0 00.308-.906l-1.197-2.429a.677.677 0 00-.907-.307zm50.729 46.778c1.48-2.383 2.925-5.824 4.292-9.205a1.981 1.981 0 00-.566-2.279c-6.427-5.302-20.508-15.328-25.662-18.215-5.474-3.066-7.697-3.127-8.451-1.686-2.525 3.5-8.518 13.491-9.668 16.744-1.439 4.065-1.882 4.385-.274 6.596 1.215 1.672 20.237 11.909 30.007 17.449.97.549 2.164.443 2.951-.346 2.009-2.013 5.316-5.749 7.371-9.058zm-12.176-4.403l3.292 14.183" stroke="#fff"/><path d="M195.564 190.268v2.786m-1.519-2.786v1.772m-1.518-2.278v1.773m-12.663-27.609l-2.28.76m1.266.759l-2.28.76" stroke="#fff" stroke-width=".5"/><path d="M182.141 175.578l-13.422 3.293" stroke="#fff"/><path d="M191.208 180.429c2.727.702 18.376 1.479 22.661-1.109.743-.449.551-1.396-.016-2.052-6.339-7.338-20.159-36.612-25.34-39.514-5.474-3.066-8.124 18.266-8.878 19.707 0 0 4.058 9.215 4.919 11.681.861 2.464 3.616 10.505 6.654 11.287z" fill="#fff"/><path d="M180.075 50.203c-1.47-6.916-7.624-22.008-20.483-27.05-12.859-5.04-29.102.24-35.615 3.51M56.611 41.605c-12.105 3.769-40.56 3.216-57.533-29.142m225.225 165.989c7.741-4.017 26.999-7.466 42.098 10.872m-124.069-87.109c-6.828 6.73-18.014 24.29-8.129 40.682 9.885 16.392 23.629 21.677 29.265 22.272m27.428-120.784c-1.272-.586-1.591-2.607-.712-4.514.878-1.908 2.621-2.98 3.892-2.394 1.272.585 1.591 2.607.713 4.514-.879 1.908-2.621 2.98-3.893 2.394zm-38.802 136.25c1.468-1.501 3.47-1.925 4.471-.946 1 .979.622 2.99-.846 4.492-1.468 1.501-3.47 1.925-4.471.946M73.656 56.691c-.614-2.008-2.198-3.304-3.536-2.895-1.339.41-1.926 2.37-1.312 4.378.614 2.008 2.196 3.304 3.535 2.895 1.34-.41 1.927-2.37 1.313-4.378z" stroke="#fff"/><path d="M89.686 42.645c6.168 0 11.169-5.303 11.169-11.846 0-6.542-5-11.846-11.169-11.846-6.168 0-11.168 5.304-11.168 11.846 0 6.543 5 11.846 11.168 11.846z" fill="#fff"/><path d="M86.978 26.4c1.241-.676 5.447-1.686 5.754 1.693.338 3.723-5.754 3.046-5.415 6.092" stroke="#6B7280" stroke-width="2"/><path d="M86.978 26.4c1.241-.676 5.447-1.686 5.754 1.693.338 3.723-5.754 3.046-5.415 6.092" stroke="#000" stroke-opacity=".8" stroke-width="2"/><path d="M88.171 36.892a.515.515 0 11-1.03 0 .515.515 0 011.03 0z" fill="#6B7280"/><path d="M88.171 36.892a.515.515 0 11-1.03 0 .515.515 0 011.03 0z" fill="#000" fill-opacity=".8"/><path d="M88.171 36.892a.515.515 0 11-1.03 0 .515.515 0 011.03 0z" stroke="#6B7280"/><path d="M88.171 36.892a.515.515 0 11-1.03 0 .515.515 0 011.03 0z" stroke="#000" stroke-opacity=".8"/><path d="M181.404 70.937c0-7.774 6.302-14.076 14.075-14.076 7.882 0 14.228 6.472 14.073 14.352l-.358 18.275a2.031 2.031 0 01-1.931 1.99l-23.729 1.157a2.032 2.032 0 01-2.13-2.03V70.938z" fill="#fff"/><path d="M184.451 88.339V85.63z" fill="#6B7280"/><path d="M184.451 88.339V85.63z" fill="#000" fill-opacity=".8"/><path d="M184.451 88.339V85.63" stroke="#6B7280" stroke-width=".5"/><path d="M184.451 88.339V85.63" stroke="#000" stroke-opacity=".8" stroke-width=".5"/><path d="M206.787 86.986v-8.8z" fill="#6B7280"/><path d="M206.787 86.986v-8.8z" fill="#000" fill-opacity=".8"/><path d="M206.787 86.986v-8.8" stroke="#6B7280" stroke-width=".5"/><path d="M206.787 86.986v-8.8" stroke="#000" stroke-opacity=".8" stroke-width=".5"/><path d="M205.434 86.985V85.63z" fill="#6B7280"/><path d="M205.434 86.985V85.63z" fill="#000" fill-opacity=".8"/><path d="M205.434 86.985V85.63" stroke="#6B7280" stroke-width=".5"/><path d="M205.434 86.985V85.63" stroke="#000" stroke-opacity=".8" stroke-width=".5"/><path d="M188.513 69.547h15.568a1.192 1.192 0 010 2.385h-15.568a1.193 1.193 0 110-2.385z" fill="#6B7280"/><path d="M188.513 69.547h15.568a1.192 1.192 0 010 2.385h-15.568a1.193 1.193 0 110-2.385z" fill="#000" fill-opacity=".8"/><path d="M188.513 69.547h15.568a1.192 1.192 0 010 2.385h-15.568a1.193 1.193 0 110-2.385z" stroke="#6B7280"/><path d="M188.513 69.547h15.568a1.192 1.192 0 010 2.385h-15.568a1.193 1.193 0 110-2.385z" stroke="#000" stroke-opacity=".8"/><path d="M167.867 71.754a3.385 3.385 0 102.417 1.015m-2.418 2.369l-1.016-22.677-9.476-.677-.677-4.061 12.184 1.354 1.015 21.661" stroke="#fff"/><path d="M191.259 178.871c-1.823-.608-7.091-13.931-9.37-20.516 0 0 3.951-6.53 6.331-10.385 2.413-3.907 4.98-9.812 6.262-12.899.456-1.098 1.742-1.592 2.801-1.053 6.732 3.426 28.38 14.818 28.166 19.525-.253 5.572-12.156 24.821-12.156 24.821-2.617.337-8.763 1.013-12.41 1.013-4.558 0-8.104.253-9.624-.506z" fill="#6B7280"/><path d="M191.259 178.871c-1.823-.608-7.091-13.931-9.37-20.516 0 0 3.951-6.53 6.331-10.385 2.413-3.907 4.98-9.812 6.262-12.899.456-1.098 1.742-1.592 2.801-1.053 6.732 3.426 28.38 14.818 28.166 19.525-.253 5.572-12.156 24.821-12.156 24.821-2.617.337-8.763 1.013-12.41 1.013-4.558 0-8.104.253-9.624-.506z" fill="#000" fill-opacity=".8"/><path d="M191.259 178.871c-1.823-.608-7.091-13.931-9.37-20.516 0 0 3.951-6.53 6.331-10.385 2.413-3.907 4.98-9.812 6.262-12.899.456-1.098 1.742-1.592 2.801-1.053 6.732 3.426 28.38 14.818 28.166 19.525-.253 5.572-12.156 24.821-12.156 24.821-2.617.337-8.763 1.013-12.41 1.013-4.558 0-8.104.253-9.624-.506zm7.345-36.978L210 147.717m-13.93.254l19.754 11.397m-21.779-7.345l19.754 11.398m-22.285-6.839l19.754 11.397m-22.795-5.825l19.754 11.398m-10.637.759l7.851 4.052" stroke="#fff"/></g><defs><clipPath id="clip0_3620_67322"><path fill="#fff" d="M0 0h267.368v220H0z"/></clipPath></defs></svg>