<svg width="268" height="220" viewBox="0 0 268 220" fill="none" xmlns="http://www.w3.org/2000/svg"><g clip-path="url(#clip0_3620_67284)"><path d="M197.479 40.168c1.733-2.314 2.029-5.246.66-6.549-1.369-1.303-3.885-.482-5.618 1.832-1.734 2.314-2.029 5.246-.66 6.549" stroke="#6B7280"/><path d="M197.479 40.168c1.733-2.314 2.029-5.246.66-6.549-1.369-1.303-3.885-.482-5.618 1.832-1.734 2.314-2.029 5.246-.66 6.549" stroke="#000" stroke-opacity=".8"/><path d="M144.258 181.138c1.338-1.461.649-4.273-1.539-6.281-2.188-2.009-5.046-2.453-6.383-.993-1.338 1.46-.648 4.272 1.539 6.281 2.188 2.008 5.046 2.453 6.383.993z" stroke="#6B7280"/><path d="M144.258 181.138c1.338-1.461.649-4.273-1.539-6.281-2.188-2.009-5.046-2.453-6.383-.993-1.338 1.46-.648 4.272 1.539 6.281 2.188 2.008 5.046 2.453 6.383.993z" stroke="#000" stroke-opacity=".8"/><path d="M206.166 115.712l3.433 1.694a.959.959 0 01.435 1.283l-1.693 3.437a.956.956 0 01-1.281.435l-3.433-1.694a.959.959 0 01-.435-1.283l1.693-3.437a.956.956 0 011.281-.435z" stroke="#6B7280"/><path d="M206.166 115.712l3.433 1.694a.959.959 0 01.435 1.283l-1.693 3.437a.956.956 0 01-1.281.435l-3.433-1.694a.959.959 0 01-.435-1.283l1.693-3.437a.956.956 0 011.281-.435z" stroke="#000" stroke-opacity=".8"/><path d="M68 116c-1.168-1.869-4.09-5.474-6.443-4.948-2.353.524 3.315 3.517 6.443 4.948z" fill="#6B7280"/><path d="M68 116c-1.168-1.869-4.09-5.474-6.443-4.948-2.353.524 3.315 3.517 6.443 4.948z" fill="#000" fill-opacity=".8"/><path d="M68 116c-1.168-1.869-4.09-5.474-6.443-4.948-2.353.524 3.315 3.517 6.443 4.948z" stroke="#6B7280"/><path d="M68 116c-1.168-1.869-4.09-5.474-6.443-4.948-2.353.524 3.315 3.517 6.443 4.948z" stroke="#000" stroke-opacity=".8"/><path d="M71.732 113c.42-2.325.657-7.167-1.749-7.931-2.405-.763.163 4.969 1.749 7.931z" fill="#6B7280"/><path d="M71.732 113c.42-2.325.657-7.167-1.749-7.931-2.405-.763.163 4.969 1.749 7.931z" fill="#000" fill-opacity=".8"/><path d="M71.732 113c.42-2.325.657-7.167-1.749-7.931-2.405-.763.163 4.969 1.749 7.931z" stroke="#6B7280"/><path d="M71.732 113c.42-2.325.657-7.167-1.749-7.931-2.405-.763.163 4.969 1.749 7.931z" stroke="#000" stroke-opacity=".8"/><path d="M290 14.821c-19.613-3.955-63.87-4.057-84 27.179" stroke="#6B7280"/><path d="M290 14.821c-19.613-3.955-63.87-4.057-84 27.179" stroke="#000" stroke-opacity=".8"/><path d="M67.196 179.05c-.894-4.399-1.05-10.573-1.196-16.339 10.148-3.72 36.463-10.752 45.304-12.104 8.842-1.352 11.84-.334 12.13 1.944 1.627 5.875 4.649 22.046 4.564 26.915-.107 6.087.326 6.728-2.924 8.858-2.6 1.704-36.6 6.245-51.373 8.676-1.264-2.102-5.095-11.007-6.505-17.95z" stroke="#6B7280"/><path d="M67.196 179.05c-.894-4.399-1.05-10.573-1.196-16.339 10.148-3.72 36.463-10.752 45.304-12.104 8.842-1.352 11.84-.334 12.13 1.944 1.627 5.875 4.649 22.046 4.564 26.915-.107 6.087.326 6.728-2.924 8.858-2.6 1.704-36.6 6.245-51.373 8.676-1.264-2.102-5.095-11.007-6.505-17.95z" stroke="#000" stroke-opacity=".8"/><path d="M86 179l-12 17" stroke="#6B7280"/><path d="M86 179l-12 17" stroke="#000" stroke-opacity=".8"/><path d="M86 188l-2 4" stroke="#6B7280" stroke-width=".5"/><path d="M86 188l-2 4" stroke="#000" stroke-opacity=".8" stroke-width=".5"/><path d="M88 189l-1 2" stroke="#6B7280" stroke-width=".5"/><path d="M88 189l-1 2" stroke="#000" stroke-opacity=".8" stroke-width=".5"/><path d="M90 189l-1 2" stroke="#6B7280" stroke-width=".5"/><path d="M90 189l-1 2" stroke="#000" stroke-opacity=".8" stroke-width=".5"/><path d="M120 161l2 2" stroke="#6B7280" stroke-width=".5"/><path d="M120 161l2 2" stroke="#000" stroke-opacity=".8" stroke-width=".5"/><path d="M120 163l3 2" stroke="#6B7280" stroke-width=".5"/><path d="M120 163l3 2" stroke="#000" stroke-opacity=".8" stroke-width=".5"/><path d="M111 175l16 11" stroke="#6B7280"/><path d="M111 175l16 11" stroke="#000" stroke-opacity=".8"/><path d="M96.847 176.983c-3.968-.416-25.125-7.096-29.53-12.618-.764-.957-.04-2.111 1.038-2.698 12.05-6.553 44.902-38.347 53.217-39.622 8.787-1.347 1.732 28.082 2.02 30.354 0 0-9.954 10.151-12.319 12.978-2.364 2.825-10.004 12.071-14.426 11.606z" fill="#6B7280"/><path d="M96.847 176.983c-3.968-.416-25.125-7.096-29.53-12.618-.764-.957-.04-2.111 1.038-2.698 12.05-6.553 44.902-38.347 53.217-39.622 8.787-1.347 1.732 28.082 2.02 30.354 0 0-9.954 10.151-12.319 12.978-2.364 2.825-10.004 12.071-14.426 11.606z" fill="#000" fill-opacity=".8"/><path d="M96.847 176.983c-3.968-.416-25.125-7.096-29.53-12.618-.764-.957-.04-2.111 1.038-2.698 12.05-6.553 44.902-38.347 53.217-39.622 8.787-1.347 1.732 28.082 2.02 30.354 0 0-9.954 10.151-12.319 12.978-2.364 2.825-10.004 12.071-14.426 11.606z" stroke="#6B7280"/><path d="M96.847 176.983c-3.968-.416-25.125-7.096-29.53-12.618-.764-.957-.04-2.111 1.038-2.698 12.05-6.553 44.902-38.347 53.217-39.622 8.787-1.347 1.732 28.082 2.02 30.354 0 0-9.954 10.151-12.319 12.978-2.364 2.825-10.004 12.071-14.426 11.606z" stroke="#000" stroke-opacity=".8"/><path d="M97.393 174.979c2.722.096 16.318-14.842 22.607-22.385 0 0-2.009-10.53-3.258-16.77-1.267-6.326-1.748-15.355-1.919-20.045a2.879 2.879 0 00-3.197-2.76c-10.635 1.2-45.02 5.552-47.068 11.849-2.425 7.454 3.836 38.622 3.836 38.622 3.307 1.729 11.131 5.637 15.972 7.428 6.052 2.239 10.633 4.314 13.027 4.061z" fill="#fff"/><path d="M97.393 174.979c2.722.096 16.318-14.842 22.607-22.385 0 0-2.009-10.53-3.258-16.77-1.267-6.326-1.748-15.355-1.919-20.045a2.879 2.879 0 00-3.197-2.76c-10.635 1.2-45.02 5.552-47.068 11.849-2.425 7.454 3.836 38.622 3.836 38.622 3.307 1.729 11.131 5.637 15.972 7.428 6.052 2.239 10.633 4.314 13.027 4.061z" stroke="#6B7280"/><path d="M97.393 174.979c2.722.096 16.318-14.842 22.607-22.385 0 0-2.009-10.53-3.258-16.77-1.267-6.326-1.748-15.355-1.919-20.045a2.879 2.879 0 00-3.197-2.76c-10.635 1.2-45.02 5.552-47.068 11.849-2.425 7.454 3.836 38.622 3.836 38.622 3.307 1.729 11.131 5.637 15.972 7.428 6.052 2.239 10.633 4.314 13.027 4.061z" stroke="#000" stroke-opacity=".8"/><path d="M106 122l-18 2" stroke="#6B7280"/><path d="M106 122l-18 2" stroke="#000" stroke-opacity=".8"/><path d="M106 132l-32 5" stroke="#6B7280"/><path d="M106 132l-32 5" stroke="#000" stroke-opacity=".8"/><path d="M107 138l-32 5" stroke="#6B7280"/><path d="M107 138l-32 5" stroke="#000" stroke-opacity=".8"/><path d="M108 145l-32 6" stroke="#6B7280"/><path d="M108 145l-32 6" stroke="#000" stroke-opacity=".8"/><path d="M109 154l-32 6" stroke="#6B7280"/><path d="M109 154l-32 6" stroke="#000" stroke-opacity=".8"/><path d="M91 166l-12 1" stroke="#6B7280"/><path d="M91 166l-12 1" stroke="#000" stroke-opacity=".8"/><path d="M238.548 43.013c-5.81.772-59.927 6.704-83.966 10.965-4.649 1.446-2.063 9.163.328 17.574 2.391 8.411 6.609 30.82 8.814 35.433 2.205 4.613 79.094-7.832 82.908-10.76 3.816-2.928-.824-54.176-8.084-53.212z" stroke="#6B7280"/><path d="M238.548 43.013c-5.81.772-59.927 6.704-83.966 10.965-4.649 1.446-2.063 9.163.328 17.574 2.391 8.411 6.609 30.82 8.814 35.433 2.205 4.613 79.094-7.832 82.908-10.76 3.816-2.928-.824-54.176-8.084-53.212z" stroke="#000" stroke-opacity=".8"/><path d="M243 53c-24.656 2.647-78.36 10.408-85 13" stroke="#6B7280"/><path d="M243 53c-24.656 2.647-78.36 10.408-85 13" stroke="#000" stroke-opacity=".8"/><path d="M223 94c-10.158 1.283-30.978 3.88-33 4" stroke="#6B7280"/><path d="M223 94c-10.158 1.283-30.978 3.88-33 4" stroke="#000" stroke-opacity=".8"/><path d="M180.015 58.693a2.455 2.455 0 011.321-4.727 2.456 2.456 0 011.701 3.025 2.452 2.452 0 01-3.022 1.702z" fill="#6B7280"/><path d="M180.015 58.693a2.455 2.455 0 011.321-4.727 2.456 2.456 0 011.701 3.025 2.452 2.452 0 01-3.022 1.702z" fill="#000" fill-opacity=".8"/><path d="M170.784 59.959a2.455 2.455 0 011.322-4.728 2.455 2.455 0 01-1.322 4.728z" fill="#6B7280"/><path d="M170.784 59.959a2.455 2.455 0 011.322-4.728 2.455 2.455 0 01-1.322 4.728z" fill="#000" fill-opacity=".8"/><path d="M161.778 61.291a2.455 2.455 0 011.322-4.728 2.455 2.455 0 01-1.322 4.728z" fill="#6B7280"/><path d="M161.778 61.291a2.455 2.455 0 011.322-4.728 2.455 2.455 0 01-1.322 4.728z" fill="#000" fill-opacity=".8"/><path d="M203.803 83.949c2.054-1.353 3.654-3.075 4.197-3.767-1.281-2.514-23.875-12.004-24.828-12.177-.953-.173 2.313 4.605 3.589 6.566 1.277 1.96 7.16 7.666 8.419 9.285 1.258 1.619 2.639 4.522 3.136 5.088.495.566 2.919-3.304 5.487-4.995z" stroke="#6B7280"/><path d="M203.803 83.949c2.054-1.353 3.654-3.075 4.197-3.767-1.281-2.514-23.875-12.004-24.828-12.177-.953-.173 2.313 4.605 3.589 6.566 1.277 1.96 7.16 7.666 8.419 9.285 1.258 1.619 2.639 4.522 3.136 5.088.495.566 2.919-3.304 5.487-4.995z" stroke="#000" stroke-opacity=".8"/><path d="M207.544 80c1.291 3.316 3.784 9.957 3.42 10-.455.053-5.26-4.885-8.964-4.444" stroke="#6B7280"/><path d="M207.544 80c1.291 3.316 3.784 9.957 3.42 10-.455.053-5.26-4.885-8.964-4.444" stroke="#000" stroke-opacity=".8"/><path d="M184 68c2.019.332 6.62 1.28 8.873 2.42 2.818 1.426 19.223 4.455 19.821 5.206.598.75.307 13.465-.763 14.374" stroke="#6B7280"/><path d="M184 68c2.019.332 6.62 1.28 8.873 2.42 2.818 1.426 19.223 4.455 19.821 5.206.598.75.307 13.465-.763 14.374" stroke="#000" stroke-opacity=".8"/><path d="M212.469 76c3.087-1.936 9.103-5.931 8.487-6.428-.77-.622-7.456.078-10.22-.097-2.763-.175-23.885-2.243-26.736-1.165" stroke="#6B7280"/><path d="M212.469 76c3.087-1.936 9.103-5.931 8.487-6.428-.77-.622-7.456.078-10.22-.097-2.763-.175-23.885-2.243-26.736-1.165" stroke="#000" stroke-opacity=".8"/><path d="M191.128 115c3.746 19.143-2.636 55.787-58.128 49.223" stroke="#6B7280"/><path d="M191.128 115c3.746 19.143-2.636 55.787-58.128 49.223" stroke="#000" stroke-opacity=".8"/><path d="M62 170c-8.622-.758-26.492-4.02-29-11" stroke="#6B7280"/><path d="M62 170c-8.622-.758-26.492-4.02-29-11" stroke="#000" stroke-opacity=".8"/><path d="M60 180c-2.557 2.159-8.537 7.581-12 12" stroke="#6B7280"/><path d="M60 180c-2.557 2.159-8.537 7.581-12 12" stroke="#000" stroke-opacity=".8"/><path d="M185 115l-8 8" stroke="#6B7280"/><path d="M185 115l-8 8" stroke="#000" stroke-opacity=".8"/><path d="M172 51c-.742-1.484-2.886-4.584-5.517-5.115-2.632-.53-5.096.537-5.999 1.137.065-3.094-1.22-9.585-6.871-10.797-5.651-1.213-9.58 2.778-10.839 4.925-.096-1.168-.987-3.618-3.774-4.073" stroke="#6B7280"/><path d="M172 51c-.742-1.484-2.886-4.584-5.517-5.115-2.632-.53-5.096.537-5.999 1.137.065-3.094-1.22-9.585-6.871-10.797-5.651-1.213-9.58 2.778-10.839 4.925-.096-1.168-.987-3.618-3.774-4.073" stroke="#000" stroke-opacity=".8"/></g><defs><clipPath id="clip0_3620_67284"><path fill="#fff" d="M0 0h267.37v220H0z"/></clipPath></defs></svg>