<svg width="268" height="220" viewBox="0 0 268 220" fill="none" xmlns="http://www.w3.org/2000/svg"><g clip-path="url(#clip0_3620_67376)"><path d="M197.479 28.168c1.733-2.314 2.029-5.246.66-6.549-1.369-1.303-3.885-.482-5.618 1.832-1.734 2.314-2.029 5.246-.66 6.549m-47.603 138.851c1.338-1.461.649-4.273-1.539-6.281-2.188-2.009-5.046-2.454-6.383-.993-1.338 1.46-.648 4.272 1.539 6.281 2.188 2.008 5.046 2.453 6.383.993zm61.908-65.426l3.433 1.694a.959.959 0 01.435 1.283l-1.693 3.437a.956.956 0 01-1.281.435l-3.433-1.694a.959.959 0 01-.435-1.283l1.693-3.437a.956.956 0 011.281-.435z" stroke="#fff"/><path d="M68 104c-1.168-2.242-4.09-6.568-6.443-5.938-2.353.63 3.315 4.22 6.443 5.938zm3.732-3c.42-2.325.657-7.167-1.749-7.93-2.405-.764.163 4.968 1.749 7.93z" fill="#fff" stroke="#fff"/><path d="M290 1.884C270.387-2.208 226.13-2.313 206 30M67.196 167.05c-.894-4.399-1.05-10.573-1.196-16.339 10.148-3.72 36.463-10.752 45.304-12.104 8.842-1.352 11.84-.334 12.13 1.944 1.627 5.875 4.649 22.046 4.564 26.915-.107 6.087.326 6.728-2.924 8.858-2.6 1.704-36.6 6.245-51.373 8.676-1.264-2.102-5.095-11.007-6.505-17.95zM86 167l-12 17" stroke="#fff"/><path d="M86 176l-2 3m4-3l-1 3m3-2l-1 2m31-30l2 2m-2 0l3 2" stroke="#fff" stroke-width=".5"/><path d="M111 163l16 11" stroke="#fff"/><path d="M96.847 164.983c-3.968-.416-25.125-7.096-29.53-12.618-.764-.957-.04-2.111 1.038-2.698 12.05-6.553 44.902-38.347 53.217-39.622 8.787-1.347 1.732 28.082 2.02 30.354 0 0-9.954 10.151-12.319 12.978-2.364 2.825-10.004 12.071-14.426 11.606z" fill="#fff" stroke="#fff"/><path d="M97.393 162.979c2.722.097 16.318-15.082 22.607-22.747 0 0-2.009-10.699-3.258-17.04-1.267-6.428-1.748-15.603-1.919-20.368-.062-1.695-1.524-2.997-3.197-2.805-10.635 1.22-45.02 5.642-47.068 12.04-2.425 7.575 3.836 39.246 3.836 39.246 3.307 1.757 11.131 5.727 15.972 7.547 6.052 2.275 10.633 4.384 13.027 4.127z" fill="#6B7280"/><path d="M97.393 162.979c2.722.097 16.318-15.082 22.607-22.747 0 0-2.009-10.699-3.258-17.04-1.267-6.428-1.748-15.603-1.919-20.368-.062-1.695-1.524-2.997-3.197-2.805-10.635 1.22-45.02 5.642-47.068 12.04-2.425 7.575 3.836 39.246 3.836 39.246 3.307 1.757 11.131 5.727 15.972 7.547 6.052 2.275 10.633 4.384 13.027 4.127z" fill="#000" fill-opacity=".8"/><path d="M97.393 162.979c2.722.097 16.318-15.082 22.607-22.747 0 0-2.009-10.699-3.258-17.04-1.267-6.428-1.748-15.603-1.919-20.368-.062-1.695-1.524-2.997-3.197-2.805-10.635 1.22-45.02 5.642-47.068 12.04-2.425 7.575 3.836 39.246 3.836 39.246 3.307 1.757 11.131 5.727 15.972 7.547 6.052 2.275 10.633 4.384 13.027 4.127zM106 110l-18 2m18 7l-32 6m33 1l-32 5m33 2l-32 5m33 4l-32 5m14 7l-12 1M238.548 31.013c-5.81.772-59.927 6.704-83.966 10.965-4.649 1.446-2.063 9.163.328 17.574 2.391 8.411 6.609 30.82 8.814 35.433 2.205 4.613 79.094-7.832 82.908-10.76 3.816-2.928-.824-54.176-8.084-53.212zM243 40c-24.656 2.85-78.36 11.209-85 14m65 28c-10.158.962-30.978 2.91-33 3" stroke="#fff"/><path d="M180.015 46.406a2.455 2.455 0 011.321-4.728 2.456 2.456 0 011.701 3.026 2.452 2.452 0 01-3.022 1.702zm-9.231 1.266a2.455 2.455 0 011.322-4.728 2.455 2.455 0 01-1.322 4.728zm-9.006 1.332a2.455 2.455 0 011.322-4.728 2.455 2.455 0 01-1.322 4.728z" fill="#fff"/><path d="M203.803 71.949c2.054-1.353 3.654-3.075 4.197-3.767-1.281-2.514-23.875-12.004-24.828-12.177-.953-.173 2.313 4.605 3.589 6.566 1.277 1.96 7.16 7.666 8.419 9.285 1.258 1.619 2.639 4.522 3.136 5.088.495.566 2.919-3.304 5.487-4.995z" stroke="#fff"/><path d="M207.544 68c1.291 2.984 3.784 8.962 3.42 9-.455.047-5.26-4.397-8.964-4" stroke="#fff"/><path d="M184 56c2.019.332 6.62 1.28 8.873 2.42 2.818 1.426 19.223 4.455 19.821 5.206.598.75.307 13.465-.763 14.374" stroke="#fff"/><path d="M212.469 64c3.087-1.936 9.103-5.931 8.487-6.428-.77-.622-7.456.078-10.22-.097-2.763-.175-23.885-2.243-26.736-1.165m7.128 46.69c3.746 19.143-2.636 55.787-58.128 49.223M62 158c-8.622-.827-26.492-4.386-29-12m27 22c-2.557 2.159-8.537 7.581-12 12m137-77l-8 7m-5-71c-.742-1.484-2.886-4.584-5.517-5.115-2.632-.53-5.096.537-5.999 1.137.065-3.094-1.22-9.585-6.871-10.797-5.651-1.213-9.58 2.778-10.839 4.925-.096-1.168-.987-3.618-3.774-4.073" stroke="#fff"/></g><defs><clipPath id="clip0_3620_67376"><path fill="#fff" d="M0 0h267.37v220H0z"/></clipPath></defs></svg>