<svg width="168" height="54" viewBox="0 0 168 54" fill="none" xmlns="http://www.w3.org/2000/svg"><path d="M22.563 34.072c0 2.736-1.116 5.76-2.736 7.2-1.62 1.44-3.924 2.052-6.516 2.052h-2.736c-3.132 0-5.94-1.584-7.488-4.068-.54-.792-.864-1.584-1.008-2.34-.288-1.476-.252-2.088-.252-2.916v.072c0-.72.036-1.404 1.152-1.404h2.448c.576 0 .936.288 1.08.864.144.468.108.576.108 1.152 0 .18.036.504.072.972.396 1.764 2.016 3.06 3.888 3.06h2.736c2.16 0 4.032-1.188 4.356-3.096.036-.252.072-.468.072-.72.036-.468.072-1.548-.54-2.088-1.008-.864-3.204-1.224-5.796-1.836-4.608-1.044-9.576-2.448-9.576-7.272V23.2c0-.756-.036-1.512.216-2.484l-.036.036c.756-3.996 4.464-6.912 8.568-6.912h2.736c2.16 0 4.212.792 5.832 2.088s2.628 3.78 2.52 6.552c-.036.72-.036 1.404-1.152 1.404h-2.376c-.684 0-1.116-.576-1.152-1.152-.108-3.06-1.368-4.212-3.672-4.212h-2.736c-1.836 0-3.528 1.332-3.924 3.168v-.036c-.108.612-.324 1.692.576 2.592.468.468 1.008.792 1.548.936l4.14 1.152c2.16.612 3.708 1.008 4.608 1.332.972.324 1.8.756 2.52 1.224 1.476 1.008 2.52 2.736 2.52 5.184zm15.55-15.228v22.752c0 .72-.035 1.404-1.151 1.404h-2.484c-1.116 0-1.152-.684-1.152-1.404V18.844h-6.984c-1.26 0-1.44-.252-1.44-1.404v-1.836c0-.72.036-1.404 1.152-1.404h19.188c1.116 0 1.188.684 1.188 1.404v1.836c0 1.152-.144 1.404-1.404 1.404h-6.912zM50.522 43c-.684 0-1.152-.468-1.152-1.152l-.072-26.496c0-.684.54-1.152 1.224-1.152H67.91c1.188 0 1.188.684 1.188 1.404v1.98c0 1.296-.18 1.404-1.44 1.404h-13.5v6.372h11.988c.684 0 1.152.504 1.152 1.188v2.448c0 .684-.468 1.188-1.152 1.188H54.157v8.028h13.968c1.26 0 1.44.108 1.44 1.404v1.944c0 .72 0 1.44-1.188 1.44H50.521zm23.87 0c-.72 0-1.08-.396-1.08-1.152l-.072-26.496c0-.756.396-1.152 1.152-1.152h2.484c1.116 0 1.152.684 1.152 1.404v22.608H89.98c1.296 0 1.404.108 1.404 1.404v1.944c0 .72-.036 1.44-1.152 1.44h-15.84zm42.716-1.152c0 .756-.396 1.152-1.152 1.152h-2.592c-.756 0-.9-.396-1.152-.936l-3.276-9.468-8.856 3.924-1.98 5.544c-.252.576-.324.936-1.188.936h-2.484c-.576 0-1.188-.468-1.188-1.152 0-.144 8.244-24.444 9.18-26.712.252-.54.432-.936 1.152-.936h3.168c.72 0 .864.468 1.116.936l9.216 26.28c.036.252.036.288.036.432zm-9.9-14.04c-.432-1.152-.72-1.872-.828-2.268-.108-.396-.252-.72-.36-1.116-.252-.72-.468-1.476-.864-2.592l-2.916 8.172 4.968-2.196zM133.719 14.2c3.24 0 6.084 2.844 6.084 6.12 0 2.736-1.476 4.32-3.528 5.724.756 2.016 1.476 3.888 2.196 5.904a394.543 394.543 0 003.6 9.576c.396.972-.144 1.476-1.116 1.476h-2.736c-.756 0-.972-.432-1.152-.9l-5.184-13.716c-2.484 1.296-4.68 2.52-7.272 3.852v9.36c0 .72-.036 1.404-1.152 1.404h-2.556c-.684 0-1.116-.576-1.116-1.152l-.072-26.496c0-.576.504-1.152 1.188-1.152h12.816zm-9.108 4.788v7.848c2.844-1.404 9.252-4.572 10.008-5.76v.036a1.33 1.33 0 00.216-.756c0-.756-.576-1.368-1.404-1.368h-8.82zm37.448-4.32c.252-.324.576-.468.972-.468h3.24c.756 0 1.152.396 1.152 1.152 0 .396-.252.72-.432.972 0 .036-.036.036-.036.072l-.036.036-9.252 13.212v11.952c0 .72 0 1.404-1.188 1.404h-2.448c-1.116 0-1.152-.684-1.152-1.404V29.572L143.375 16c-.144-.252-.144-.396-.144-.684 0-.756.36-1.116 1.116-1.116h3.204c.468 0 .792.18 1.044.54l6.732 9.972c3.744-5.76 5.976-9.108 6.804-10.116l-.072.072z" fill="#6B7280"/><path d="M22.563 34.072c0 2.736-1.116 5.76-2.736 7.2-1.62 1.44-3.924 2.052-6.516 2.052h-2.736c-3.132 0-5.94-1.584-7.488-4.068-.54-.792-.864-1.584-1.008-2.34-.288-1.476-.252-2.088-.252-2.916v.072c0-.72.036-1.404 1.152-1.404h2.448c.576 0 .936.288 1.08.864.144.468.108.576.108 1.152 0 .18.036.504.072.972.396 1.764 2.016 3.06 3.888 3.06h2.736c2.16 0 4.032-1.188 4.356-3.096.036-.252.072-.468.072-.72.036-.468.072-1.548-.54-2.088-1.008-.864-3.204-1.224-5.796-1.836-4.608-1.044-9.576-2.448-9.576-7.272V23.2c0-.756-.036-1.512.216-2.484l-.036.036c.756-3.996 4.464-6.912 8.568-6.912h2.736c2.16 0 4.212.792 5.832 2.088s2.628 3.78 2.52 6.552c-.036.72-.036 1.404-1.152 1.404h-2.376c-.684 0-1.116-.576-1.152-1.152-.108-3.06-1.368-4.212-3.672-4.212h-2.736c-1.836 0-3.528 1.332-3.924 3.168v-.036c-.108.612-.324 1.692.576 2.592.468.468 1.008.792 1.548.936l4.14 1.152c2.16.612 3.708 1.008 4.608 1.332.972.324 1.8.756 2.52 1.224 1.476 1.008 2.52 2.736 2.52 5.184zm15.55-15.228v22.752c0 .72-.035 1.404-1.151 1.404h-2.484c-1.116 0-1.152-.684-1.152-1.404V18.844h-6.984c-1.26 0-1.44-.252-1.44-1.404v-1.836c0-.72.036-1.404 1.152-1.404h19.188c1.116 0 1.188.684 1.188 1.404v1.836c0 1.152-.144 1.404-1.404 1.404h-6.912zM50.522 43c-.684 0-1.152-.468-1.152-1.152l-.072-26.496c0-.684.54-1.152 1.224-1.152H67.91c1.188 0 1.188.684 1.188 1.404v1.98c0 1.296-.18 1.404-1.44 1.404h-13.5v6.372h11.988c.684 0 1.152.504 1.152 1.188v2.448c0 .684-.468 1.188-1.152 1.188H54.157v8.028h13.968c1.26 0 1.44.108 1.44 1.404v1.944c0 .72 0 1.44-1.188 1.44H50.521zm23.87 0c-.72 0-1.08-.396-1.08-1.152l-.072-26.496c0-.756.396-1.152 1.152-1.152h2.484c1.116 0 1.152.684 1.152 1.404v22.608H89.98c1.296 0 1.404.108 1.404 1.404v1.944c0 .72-.036 1.44-1.152 1.44h-15.84zm42.716-1.152c0 .756-.396 1.152-1.152 1.152h-2.592c-.756 0-.9-.396-1.152-.936l-3.276-9.468-8.856 3.924-1.98 5.544c-.252.576-.324.936-1.188.936h-2.484c-.576 0-1.188-.468-1.188-1.152 0-.144 8.244-24.444 9.18-26.712.252-.54.432-.936 1.152-.936h3.168c.72 0 .864.468 1.116.936l9.216 26.28c.036.252.036.288.036.432zm-9.9-14.04c-.432-1.152-.72-1.872-.828-2.268-.108-.396-.252-.72-.36-1.116-.252-.72-.468-1.476-.864-2.592l-2.916 8.172 4.968-2.196zM133.719 14.2c3.24 0 6.084 2.844 6.084 6.12 0 2.736-1.476 4.32-3.528 5.724.756 2.016 1.476 3.888 2.196 5.904a394.543 394.543 0 003.6 9.576c.396.972-.144 1.476-1.116 1.476h-2.736c-.756 0-.972-.432-1.152-.9l-5.184-13.716c-2.484 1.296-4.68 2.52-7.272 3.852v9.36c0 .72-.036 1.404-1.152 1.404h-2.556c-.684 0-1.116-.576-1.116-1.152l-.072-26.496c0-.576.504-1.152 1.188-1.152h12.816zm-9.108 4.788v7.848c2.844-1.404 9.252-4.572 10.008-5.76v.036a1.33 1.33 0 00.216-.756c0-.756-.576-1.368-1.404-1.368h-8.82zm37.448-4.32c.252-.324.576-.468.972-.468h3.24c.756 0 1.152.396 1.152 1.152 0 .396-.252.72-.432.972 0 .036-.036.036-.036.072l-.036.036-9.252 13.212v11.952c0 .72 0 1.404-1.188 1.404h-2.448c-1.116 0-1.152-.684-1.152-1.404V29.572L143.375 16c-.144-.252-.144-.396-.144-.684 0-.756.36-1.116 1.116-1.116h3.204c.468 0 .792.18 1.044.54l6.732 9.972c3.744-5.76 5.976-9.108 6.804-10.116l-.072.072z" fill="#000" fill-opacity=".8"/></svg>