<svg width="169" height="28" viewBox="0 0 169 28" fill="none" xmlns="http://www.w3.org/2000/svg"><path d="M4.094 19.7c.053.96.12 1.707.2 2.24a6.54 6.54 0 00.44 1.52c.4.987 1.067 1.773 2 2.36.933.56 2.04.84 3.32.84a7.43 7.43 0 002.44-.4c.8-.293 1.467-.707 2-1.24.88-.8 1.32-1.92 1.32-3.36 0-1.52-.56-2.8-1.68-3.84-.213-.187-.427-.36-.64-.52a4.068 4.068 0 00-.76-.44 7.09 7.09 0 00-1-.48c-.373-.187-.84-.387-1.4-.6l-2.56-1.04a38.17 38.17 0 01-1.76-.72 30.36 30.36 0 01-1.28-.6 74.796 74.796 0 01-.96-.6 7.057 7.057 0 01-.84-.72C1.547 10.793.854 9.233.854 7.42c0-1.12.213-2.12.64-3a6.116 6.116 0 011.84-2.28c.8-.64 1.76-1.133 2.88-1.48C7.334.313 8.587.14 9.974.14c2.853 0 5.04.653 6.56 1.96 1.547 1.28 2.347 3.173 2.4 5.68h-3.72c-.053-.907-.133-1.6-.24-2.08a7.024 7.024 0 00-.52-1.48c-.4-.88-1.04-1.573-1.92-2.08-.853-.507-1.827-.76-2.92-.76-.773 0-1.48.12-2.12.36-.613.24-1.16.573-1.64 1-.453.4-.813.893-1.08 1.48a5.023 5.023 0 00-.36 1.92c0 1.173.36 2.147 1.08 2.92.747.747 2.013 1.48 3.8 2.2l2.88 1.12c.587.24 1.107.467 1.56.68.453.187.853.373 1.2.56.347.16.653.333.92.52a9.8 9.8 0 01.84.6 6.641 6.641 0 011.92 2.48c.453.933.68 1.96.68 3.08 0 2.4-.84 4.267-2.52 5.6-1.653 1.307-3.973 1.96-6.96 1.96-3.04 0-5.36-.693-6.96-2.08-1.6-1.387-2.427-3.413-2.48-6.08h3.72zM45.607.66v1.36h-9.76v25.32h-3.72V2.02h-9.8V.66h23.28zm21.724 1.36h-12.6v10.92h11.24v1.36h-11.24v11.68h13.24v1.36h-16.96V.66h16.32v1.36zm23.471 25.32h-15.96V.66h3.72v25.28h12.24v1.4zm19.989-10.32l-4.96-12.52-4.76 12.52h9.72zm8.24 10.32h-4.16l-3.56-8.96h-10.76l-3.4 8.96h-2.76L106.07.38h1.8l11.16 26.96zm12.736-13.68c2 0 3.533-.507 4.6-1.52 1.067-1.04 1.6-2.52 1.6-4.44 0-.987-.173-1.88-.52-2.68-.32-.827-.773-1.467-1.36-1.92a4.957 4.957 0 00-1.88-.92c-.72-.187-1.64-.28-2.76-.28h-3.4v11.76h3.72zm.28-13c1.813 0 3.28.133 4.4.4 1.147.267 2.147.707 3 1.32 1.68 1.227 2.52 2.947 2.52 5.16 0 3.787-2.374 6-7.12 6.64v.08c1.013.053 1.866.187 2.56.4.72.187 1.32.493 1.8.92.506.427.906.987 1.2 1.68.32.693.6 1.56.84 2.6l2 7.48h-4.04l-1.56-6.56c-.187-.8-.36-1.467-.52-2a9.673 9.673 0 00-.48-1.36c-.133-.373-.28-.667-.44-.88-.16-.24-.347-.44-.56-.6-.453-.373-1.04-.627-1.76-.76-.72-.16-1.773-.24-3.16-.24h-2.68v12.4h-3.72V.66h7.72zm27.14 26.68h-3.72V16.42L146.107.66h4.36l7.96 13.64 7.36-13.64h2.84l-9.44 15.28v11.4z" fill="#000"/></svg>