<svg width="40" height="40" viewBox="0 0 40 40" fill="none" xmlns="http://www.w3.org/2000/svg"><rect width="40" height="40" rx="20" fill="#F15A24"/><path d="M18.682 20.806c1.036.056 2.1-.056 3.136-.056.616.028 1.204.056 1.792.14.336.056.672.168.952.364.084.056.168.112.224.168.588.756 1.036 1.54 1.036 2.548-.028.672-.168 1.316-.504 1.904-.448.812-.84 1.624-1.4 2.38a9.425 9.425 0 01-1.96 1.988c-.616.42-1.204.868-1.904 1.176-.98.448-1.932.392-2.856-.084a11.076 11.076 0 01-.952-.616c-.476-.336-.784-.812-1.092-1.316-.028-.084-.084-.14-.028-.224.084-.084.168-.028.224-.028.14.056.252.14.336.252.084.112.168.224.28.336.336.28.756.224 1.148.196.252-.056.504-.14.756-.252a12.14 12.14 0 003.808-3.024 15.607 15.607 0 001.96-2.912c.196-.364.308-.756.364-1.176.028-.112-.028-.168-.14-.196-.476 0-.924-.056-1.4-.084-.588-.028-1.148 0-1.736 0-.924-.028-1.848-.028-2.772-.168-1.204-.196-2.156-.784-2.884-1.764-.7-.924-.98-1.96-.868-3.08.084-.84.392-1.624.756-2.408a16.997 16.997 0 012.296-3.36c.868-1.008 1.82-1.904 2.996-2.548.588-.308 1.176-.56 1.82-.644.84-.14 1.596.056 2.212.672.448.504.868 1.064 1.148 1.68.14.308.196.644.224.98.056.812-.056 1.596-.196 2.352-.196 1.036-.42 2.044-.84 3.024a6.541 6.541 0 01-1.008 1.708c-.14.168-.308.308-.504.392a.836.836 0 01-1.064-.42c-.14-.224-.084-.448.14-.616.056-.056.14-.084.196-.14.252-.168.476-.392.616-.7.588-1.428.952-2.94 1.12-4.48a11.98 11.98 0 00.028-1.736c0-.308-.112-.616-.196-.924-.028-.14-.112-.168-.252-.168-.196 0-.42.056-.616.112a7.35 7.35 0 00-2.072 1.092c-1.372 1.064-2.492 2.38-3.5 3.808-.7 1.008-1.26 2.072-1.596 3.276a3.246 3.246 0 00.028 1.792c.028.14.112.252.224.336.392.308.868.42 1.344.448.392.028.784 0 1.176 0z" fill="#fff"/></svg>