<svg width="40" height="40" viewBox="0 0 40 40" fill="none" xmlns="http://www.w3.org/2000/svg"><rect width="40" height="40" rx="8" fill="#F06B9D"/><path d="M29.648 10.906l.197-.152-.152-.198c-.517-.672-1.156-1.376-2.04-1.91-.887-.538-2.007-.896-3.473-.896-1.555 0-3.302.362-4.667 1.282-1.377.93-2.353 2.418-2.353 4.621 0 1.132.392 2.236.96 3.3.57 1.062 1.325 2.103 2.068 3.107l.2.27c.679.913 1.333 1.794 1.833 2.65.551.943.897 1.825.897 2.656 0 1.74-.801 3.039-2 3.91-1.206.878-2.819 1.324-4.418 1.324-1.759 0-2.96-.407-3.715-.989-.75-.579-1.08-1.343-1.08-2.112 0-2.248 1.735-3.641 3.794-4.721l.272-.143-.196-.238-1.286-1.557-.148-.18-.19.136c-2.858 2.032-3.896 4.132-3.896 6.33 0 1.572.683 2.798 1.83 3.622 1.139.818 2.718 1.232 4.513 1.232 2.348 0 4.643-.69 6.357-1.917 1.717-1.23 2.863-3.008 2.863-5.17 0-2.52-1.618-4.735-3.167-6.718l-.35-.446c-.66-.839-1.287-1.638-1.776-2.418-.575-.92-.935-1.778-.935-2.605 0-2.65 1.998-4.049 3.981-4.049.72 0 1.387.159 2.044.62.664.464 1.335 1.249 2.036 2.533l.14.257.232-.178 1.625-1.253z" fill="#fff" stroke="#fff" stroke-width=".5"/></svg>